<svg xmlns="http://www.w3.org/2000/svg" xmlns:xlink="http://www.w3.org/1999/xlink" viewBox="0 0 1111.51 1020.86"><defs><linearGradient id="Dégradé_sans_nom_41" x1="265.82" y1="395.78" x2="615.16" y2="740.72" gradientUnits="userSpaceOnUse"><stop offset="0.26" stop-color="#7986cb"/><stop offset="0.84" stop-color="#b4bbe2"/><stop offset="1" stop-color="#c5cae9"/></linearGradient><linearGradient id="Dégradé_sans_nom_49" x1="1319.36" y1="571.06" x2="93.89" y2="709.92" gradientUnits="userSpaceOnUse"><stop offset="0" stop-color="#7986cb"/><stop offset="0.13" stop-color="#8f99d4"/><stop offset="0.31" stop-color="#a7afdd"/><stop offset="0.5" stop-color="#b8bee4"/><stop offset="0.71" stop-color="#c2c7e8"/><stop offset="0.97" stop-color="#c5cae9"/></linearGradient><linearGradient id="Dégradé_sans_nom_38" x1="486.94" y1="88.62" x2="758.56" y2="88.62" gradientUnits="userSpaceOnUse"><stop offset="0" stop-color="#c5cae9"/><stop offset="0.17" stop-color="#b4bbe2"/><stop offset="0.78" stop-color="#7986cb"/></linearGradient><linearGradient id="Dégradé_sans_nom_41-2" x1="637.03" y1="595.92" x2="349.4" y2="382.13" xlink:href="#Dégradé_sans_nom_41"/><linearGradient id="Dégradé_sans_nom_41-3" x1="1011.99" y1="334.94" x2="993.25" y2="462.78" xlink:href="#Dégradé_sans_nom_41"/><radialGradient id="Dégradé_sans_nom_40" cx="630.92" cy="54.56" fy="-33.585237874477855" r="163.85" gradientTransform="translate(296.55 592.23) rotate(-62.94) scale(1 0.97)" xlink:href="#Dégradé_sans_nom_41"/><linearGradient id="Dégradé_sans_nom_39" x1="746.39" y1="159.86" x2="784.78" y2="159.86" gradientUnits="userSpaceOnUse"><stop offset="0.29" stop-color="#7986cb"/><stop offset="0.85" stop-color="#b4bbe2"/><stop offset="1" stop-color="#c5cae9"/></linearGradient><linearGradient id="Dégradé_sans_nom_16" x1="687.82" y1="135.61" x2="780.39" y2="78.3" gradientUnits="userSpaceOnUse"><stop offset="0" stop-color="#7986cb"/><stop offset="0.78" stop-color="#b4bbe2"/><stop offset="1" stop-color="#c5cae9"/></linearGradient><linearGradient id="Dégradé_sans_nom_17" x1="778.96" y1="183.08" x2="800.16" y2="183.08" gradientUnits="userSpaceOnUse"><stop offset="0" stop-color="#c5cae9"/><stop offset="0.22" stop-color="#b4bbe2"/><stop offset="1" stop-color="#7986cb"/></linearGradient><linearGradient id="Dégradé_sans_nom_51" x1="387.14" y1="589.02" x2="883.27" y2="589.02" gradientUnits="userSpaceOnUse"><stop offset="0" stop-color="#8d6e63"/><stop offset="0.05" stop-color="#8a6a5f"/><stop offset="0.31" stop-color="#7a594e"/><stop offset="0.61" stop-color="#704f44"/><stop offset="0.97" stop-color="#6d4c41"/></linearGradient><linearGradient id="Dégradé_sans_nom_53" x1="1094.89" y1="435.18" x2="959.71" y2="530.69" gradientUnits="userSpaceOnUse"><stop offset="0.03" stop-color="#6d4c41"/><stop offset="0.48" stop-color="#7a594e"/><stop offset="1" stop-color="#8d6e63"/></linearGradient><radialGradient id="Dégradé_sans_nom_21" cx="597.05" cy="288.77" fx="647.2119045308216" fy="-6.462980952189241" r="445.99" gradientTransform="matrix(-0.94, -0.34, 0.44, -1.21, 1032.81, 840.21)" gradientUnits="userSpaceOnUse"><stop offset="0.22" stop-color="#7986cb"/><stop offset="0.83" stop-color="#b4bbe2"/><stop offset="1" stop-color="#c5cae9"/></radialGradient><linearGradient id="Dégradé_sans_nom_49-2" x1="1112.26" y1="659.19" x2="1017.02" y2="669.98" xlink:href="#Dégradé_sans_nom_49"/></defs><title>casque</title><g id="Calque_2" data-name="Calque 2"><g id="Calque_2-2" data-name="Calque 2"><path d="M533.14,36.52l0,0-.07.06-.1.08-2.28,2.24c-.9.9-1.8,1.81-2.69,2.73l0,0c-.9.93-1.79,1.87-2.68,2.82-1.51,1.63-3,3.28-4.47,5,.61-.62,1.22-1.23,1.83-1.81a.22.22,0,0,1,.07-.07q.69-.8,1.41-1.59c.47-.54.95-1.06,1.44-1.59l1.87-2c.63-.67,1.26-1.33,1.9-2h0l1.91-1.95c.64-.65,1.28-1.29,1.93-1.93Zm.92-.89h0l0,0s0,0,0,0a.57.57,0,0,0-.11.11l-.35.33h0c-.11.11-.23.22-.34.35h0l.08-.06c.13-.14.26-.26.38-.38l0,0,.69-.68Zm.93-.88-.28.26-.05.05s0,0,0,0l.5-.47Z" style="fill:none"/><path d="M784.82,157.53a.3.3,0,0,1,0,.1,5.14,5.14,0,0,1-.42.38Z" style="fill:none"/><path d="M487.33,98.42v0h0Z" style="fill:none"/><path d="M487.68,98.19a.53.53,0,0,1-.14.1l-.21.13Z" style="fill:none"/><path d="M533.34,73l-.53.27.12-.07Z" style="fill:none"/><path d="M533,36.62c-.61.61-1.21,1.2-1.81,1.83s-1.28,1.29-1.91,1.95h0c-.64.66-1.27,1.32-1.9,2l-1.87,2q-.74.8-1.44,1.59t-1.41,1.59a.22.22,0,0,0-.07.07c-.61.58-1.22,1.19-1.83,1.81,1.47-1.69,3-3.34,4.47-5,.89-1,1.78-1.89,2.68-2.82l0,0c.89-.92,1.79-1.83,2.69-2.73l2.28-2.24Z" style="fill:none"/><path d="M533.53,36.14l-.34.35h0c.11-.13.23-.24.34-.35Z" style="fill:none"/><path d="M553.16,581.82c-62.87,5-125.73,8.38-125.73,8.38-7,0-16,2-20,5l-18,15c-.17.17-.39.36-.64.59-22.52-18-43.68-37.5-62.17-59.38h0l-1.48-1.79-.32-.39-.05-.07h0l-.29-.36c-.51-.63-1-1.25-1.52-1.88-.87-1.1-2-2.54-3.5-4.47-1.68-2.27-3.4-4.56-5.17-7-.19-.25-.37-.51-.54-.76l-.53-.76L312,532.11c-1.68-2.43-3.4-5.06-5.19-8-.44-.73-.88-1.45-1.3-2.17-.69-1.17-1.39-2.4-2.11-3.68a1.13,1.13,0,0,1-.12-.21l-.61-1.09s0,0,0-.05h0l-.18-.34-1-1.8c-.44-1.2-.7-.25-6.46-14.05-15.21-35.61-3.44-73.31,33.42-92.47,1.49,27.14,8.12,52.83,34.9,80.59,15.78,17.39,43.81,38.62,70.7,52.6C464.74,559.55,506.21,573.11,553.16,581.82Z" style="fill:url(#Dégradé_sans_nom_41)"/><path d="M1042.21,455.39c-2.26,1.92-5,4-8.12,6.2a116.18,116.18,0,0,0,6.09-15.6,92.2,92.2,0,0,1-5.74,15.2C1034.65,461,1038,458.63,1042.21,455.39Z" style="fill:none"/><path d="M1058.33,440.34c-1.09,2.08-4.23,5.18-7.9,8.36-.67.58-1.36,1.17-2.06,1.75-1.39,1.16-2.81,2.3-4.18,3.4l-2,1.53.21-.18C1054.76,444.63,1057.78,441.05,1058.33,440.34Z" style="fill:none"/><path d="M1058.58,440.11l-.11.06.08-.11S1058.58,440.09,1058.58,440.11Z" style="fill:none"/><path d="M429.47,640.86c3.28-1.19,6.61-2.85,9.35-3.87-2.06,1-5.74,2.73-9.06,4.07Z" style="fill:none"/><path d="M440.43,636.2l1.08,0-.08,0a17.17,17.17,0,0,0-2.54.76Z" style="fill:none"/><path d="M537.82,632.44c-14.41,1.78-86.08,3.5-96.2,3.73C445.82,635.6,488.55,634.7,537.82,632.44Z" style="fill:none"/><path d="M1110.72,587.7C1087.44,784.12,695,775.05,449,652.7c2.3-1.63,4.83-4,8.42-5.5,7-3,29-2,40-5,9.89-2.7,36-8.63,41.11-9.8l-.63,0c.57-.07,1.06-.14,1.43-.21l-.77.18c38-1.75,79.91-4.33,110.86-8.2,72-9,128-21,181-26,1.29-.12,2.56-.25,3.82-.4l1.87-.22,2.15-.28,2.11-.29,1.21-.18,1.55-.24c1-.16,2.05-.33,3.05-.51l1.49-.27q3-.54,5.77-1.15l1.59-.35c.79-.17,1.57-.35,2.33-.54l2.28-.55.1,0,2.11-.55,2.15-.58,1.4-.39c1.15-.33,2.28-.66,3.37-1s2.16-.67,3.2-1q3.1-1,5.84-2l1.08-.4c1.56-.59,3-1.16,4.37-1.72,4-1.65,7.19-3.15,9.4-4.28l1.27-.66.34-.17,0,0,1.4-.76,0,0,.06,0,.59-.34,0,0h0a46.84,46.84,0,0,0,31-5c13-7,11-11,11-11l2.3-.92h0l1.68-.69,2-.81c1-.41,2-.84,3-1.27l3.14-1.36c3-1.34,6.13-2.74,9.21-4.19.94-.43,1.88-.88,2.82-1.33,3.05-1.44,6.11-2.94,9.17-4.47,1-.51,2-1,3-1.54,26.23-13.29,52.06-28.83,71.75-41.32l2.12-1.35q4.36-2.79,8.27-5.33l1.55-1,2.67-1.75,1.7-1.12,3.22-2.13,1.44-1c2.63-1.75,4.94-3.31,6.89-4.62l.57-.39,2.11-1.44,1.11-.75,3.09-2.13.18-.12a11.73,11.73,0,0,0,2.82-2.59C1104,515.7,1114.56,553.19,1110.72,587.7Z" style="fill:url(#Dégradé_sans_nom_49)"/><path d="M296.72,504.87c-.6-1.39-1.17-2.78-1.7-4.16C295.56,502.09,296.13,503.47,296.72,504.87Z" style="fill:none"/><path d="M303.81,519q-1.21-2.14-2.33-4.28Q302.61,516.89,303.81,519Z" style="fill:none"/><path d="M308.14,526.26c-.92-1.44-1.8-2.89-2.65-4.33Q306.78,524.09,308.14,526.26Z" style="fill:none"/><path d="M315.05,536.51C314,535,313,533.58,312,532.11Q313.48,534.3,315.05,536.51Z" style="fill:none"/><path d="M319.44,542.44c-1.14-1.49-2.24-3-3.31-4.44Q317.75,540.21,319.44,542.44Z" style="fill:none"/><path d="M326.61,551.4q-1.89-2.25-3.67-4.49Q324.74,549.15,326.61,551.4Z" style="fill:none"/><path d="M296.72,504.87c-.6-1.39-1.17-2.78-1.7-4.16C295.56,502.09,296.13,503.47,296.72,504.87Z" style="fill:none"/><path d="M303.81,519q-1.21-2.14-2.33-4.28Q302.61,516.89,303.81,519Z" style="fill:none"/><path d="M308.14,526.26c-.92-1.44-1.8-2.89-2.65-4.33Q306.78,524.09,308.14,526.26Z" style="fill:none"/><path d="M315.05,536.51C314,535,313,533.58,312,532.11Q313.48,534.3,315.05,536.51Z" style="fill:none"/><path d="M319.44,542.44c-1.14-1.49-2.24-3-3.31-4.44Q317.75,540.21,319.44,542.44Z" style="fill:none"/><path d="M326.61,551.4q-1.89-2.25-3.67-4.49Q324.74,549.15,326.61,551.4Z" style="fill:none"/><path d="M533,36.62c-.61.61-1.21,1.2-1.81,1.83s-1.28,1.29-1.91,1.95h0c-.64.66-1.27,1.32-1.9,2l-1.87,2q-.74.8-1.44,1.59t-1.41,1.59a.22.22,0,0,0-.07.07c-.61.58-1.22,1.19-1.83,1.81,1.47-1.69,3-3.34,4.47-5,.89-1,1.78-1.89,2.68-2.82l0,0c.89-.92,1.79-1.83,2.69-2.73l2.28-2.24Z" style="fill:none"/><path d="M533.53,36.14l-.34.35h0c.11-.13.23-.24.34-.35Z" style="fill:none"/><path d="M533,36.62c-.61.61-1.21,1.2-1.81,1.83s-1.28,1.29-1.91,1.95h0c-.64.66-1.27,1.32-1.9,2l-1.87,2q-.74.8-1.44,1.59t-1.41,1.59a.22.22,0,0,0-.07.07c-.61.58-1.22,1.19-1.83,1.81,1.47-1.69,3-3.34,4.47-5,.89-1,1.78-1.89,2.68-2.82l0,0c.89-.92,1.79-1.83,2.69-2.73l2.28-2.24Z" style="fill:none"/><path d="M533.53,36.14l-.34.35h0c.11-.13.23-.24.34-.35Z" style="fill:none"/><path d="M784.82,157.53a.3.3,0,0,1,0,.1,5.14,5.14,0,0,1-.42.38Z" style="fill:none"/><path d="M489.31,97.1l-1.57,1.06-.06,0a.53.53,0,0,1-.14.1c-.1.08-.18.12-.22.15h0l0,0h0s0,0,0-.06l0,0,.09,0,.09-.06Z" style="fill:none"/><path d="M534.36,35.35l-.69.68a2.13,2.13,0,0,1,.21-.22.57.57,0,0,1,.11-.11s0,0,0,0l0,0h0Z" style="fill:#3949ab"/><path d="M535.14,34.62l-.5.47s0,0,0,0l.05-.05.28-.26Z" style="fill:#3949ab"/><path d="M562.63,13.62c-.63.38-1.25.76-1.87,1.16-.43.23-.86.48-1.29.73C560.52,14.86,561.57,14.23,562.63,13.62Z" style="fill:none"/><path d="M532.81,73.22l.12-.07.41-.2.06,0h0l0,0c.83-.43,1.65-.85,2.46-1.24l.37-.18,1.2-.6.21-.1c2.91-1.42,5.75-2.73,8.49-3.92l1.1-.48h0c3.62-1.55,7.1-2.89,10.45-4.07l.29-.1q4.61-1.65,9-2.9l.06,0h0l.06,0,1.3-.44c1.48-.5,3-1,4.44-1.45l2.23-.71,2.8-.86,2.8-.83c1.88-.56,3.76-1.09,5.65-1.61h0a113.36,113.36,0,0,1,57.9,9.21l1.33.6.88.4.15.07c.78.36,1.55.73,2.32,1.12,26.24,13,47.07,34.46,63.23,53.63l1.28,1.53.92,1.11.91,1.1c.61.74,1.21,1.47,1.79,2.19l.88,1.08c7.83,9.6,14.4,18.22,19.82,24.37l.62.7c.21.22.41.45.61.67l.6.65.29.3c.19.21.39.42.59.62l.58.59c.39.41.77.78,1.15,1.13s.56.54.84.79.54.49.81.71.36.31.54.45a6.67,6.67,0,0,0,.53.43l.08.07c.26.21.52.39.77.57l.18.13h0l0,0,.21.09,0,0c7,2.93,11.34-.26,12.08-2.39a2.37,2.37,0,0,0,.09-.36c-3.87-2.7-7.27-6.88-10.8-12.24-8-10.84-15.13-24.8-22-36.44-3.76-5.74-8-11.79-12.94-18.07q-3.69-4.72-7.94-9.62l-.41-.48a254.34,254.34,0,0,0-20.19-20.6A163.68,163.68,0,0,0,632.6,26.08c-20.81-7.68-44.35-10.82-67.72-3.89l-.1,0c-14.32,4.26-28.57,12.29-42.09,25.39a.22.22,0,0,0-.07.07c-.61.58-1.22,1.19-1.83,1.81h0c-11.07,11.16-21.62,25.78-31.28,44.58,0,0,0,0,0,0q-1.1,2.09-2.14,4.24l.09,0,.09-.06,1.78-1.13-1.57,1.06-.06,0a.53.53,0,0,1-.14.1c-.1.08-.18.12-.22.15h0l0,0h0s0,0,0-.06l-.31.25-.08.06Z" style="fill:url(#Dégradé_sans_nom_38)"/><path d="M737.87,149.76c-5.55-6.22-12.1-14.83-19.82-24.37C725.88,135,732.45,143.61,737.87,149.76Z" style="fill:#303f9f"/><path d="M814.3,206c6.38-7.68,12.27-19.35,15-31.55C826.53,186.45,820.65,198.2,814.3,206Zm-67.91-48.26,0,0-.21-.09a13.45,13.45,0,0,0,1.64.72ZM759,208.87a186.11,186.11,0,0,0,21.52,4.66A199.07,199.07,0,0,1,759,208.87Zm-41-83.48c7.72,9.54,14.27,18.15,19.82,24.37C732.45,143.61,725.88,135,718.05,125.39ZM633.64,73.05A221.52,221.52,0,0,1,650.93,89.7,151.28,151.28,0,0,0,633.64,73.05Zm-100.71.1-.12.07.53-.27Z" style="fill:#303f9f"/><path d="M487.35,98.34l.09,0-.11.09-.31.25-.08.06a.93.93,0,0,1,.05-.1h0c.3-.56,1.12-2.09,2.5-4.48Q488.4,96.19,487.35,98.34Z" style="fill:none"/><path d="M784.82,157.53a.3.3,0,0,1,0,.1,5.14,5.14,0,0,1-.42.38Z" style="fill:none"/><path d="M532.93,36.7l.1-.08.07-.06,0,0h0" style="fill:none"/><path d="M486.94,98.69h0" style="fill:none"/><path d="M337.56,389.65c-.06-.48-.11-1-.15-1.45h0C337.47,388.68,337.51,389.17,337.56,389.65Z" style="fill:none"/><path d="M723.52,559.47c-26.19,4.61-53.56,9.27-77.09,12.73-24.13,3.55-58.7,6.84-93.27,9.62-46.95-8.71-88.42-22.27-119.12-40.39-26.89-14-54.92-35.21-70.7-52.6-26.78-27.76-33.41-53.45-34.9-80.59-.64-20.85,8.48-20.1,9-20,0,.48.09,1,.15,1.45,3.76,34.83,19.56,63.48,43.15,86.61,37.11,35.29,94.52,59.11,160.23,72.37,14.65,2.67,29.43,4.68,44.09,6.07l5.84.64,4.37.45c2.8.28,5.61.55,8.45.81l.78.07,4.3.38,4.34.36,7.73.59,1.09.08,4.93.33c20.95,1.36,42.83,2.05,65.11,1.88h1.9c1.91,0,3.81,0,5.73-.08l1.61,0q3.21,0,6.45-.14l1.49,0c2,0,3.91-.11,5.86-.18l.47,0,2.26-.08Z" style="fill:url(#Dégradé_sans_nom_41-2)"/><path d="M868.59,535.73l-.69.17-.14,0,.82-.24h0Z" style="fill:none"/><path d="M1044.86,423l0,.25q0,.19-.06.51c0,.1,0,.2,0,.32a.78.78,0,0,1,0,.16c-.18,1.76-.42,3.51-.69,5.24q-.11.72-.24,1.44a2.57,2.57,0,0,1-.08.47q-.14.84-.3,1.68c-.09.54-.2,1.08-.31,1.61-.07.35-.14.7-.22,1.05-.15.72-.31,1.43-.47,2.14-.21.92-.44,1.83-.68,2.74s-.48,1.82-.74,2.72-.52,1.8-.8,2.69a116.18,116.18,0,0,1-6.09,15.6c-16.29,11.47-42,25.43-53.66,29.61-8.27,2.95-26.31,10.79-39.69,16.72Q946.5,505,952,502c30.11-18.12,55.21-41.23,72.66-70.33a95.37,95.37,0,0,0,9-40.42,1,1,0,0,1,.13.09C1043.47,397.45,1046.2,410.58,1044.86,423Z" style="fill:url(#Dégradé_sans_nom_41-3)"/><path d="M925.75,515l-1.34.6a3.24,3.24,0,0,0,0-.43l1-.47A4,4,0,0,1,925.75,515Z" style="fill:none"/><path d="M775.44,113.41c-.08-.15-.15-.31-.22-.46C764.32,89.63,748,65.14,739,55.28h0C684.08,1.1,613.36-15,560.76,14.78c-.43.23-.86.48-1.29.73l-.48.29a116.32,116.32,0,0,0-24.93,19.83l.3-.28-.69.68,0,0c-.12.12-.25.24-.38.38l-.08.06h0l0,0c-.65.64-1.29,1.28-1.93,1.93l-1.91,1.95h0c-.64.66-1.27,1.32-1.9,2l-1.87,2q-.74.8-1.44,1.59t-1.41,1.59c13.52-13.1,27.77-21.13,42.09-25.39l.1,0c23.37-6.93,46.91-3.79,67.72,3.89a163.68,163.68,0,0,1,51.72,31.43,254.34,254.34,0,0,1,20.19,20.6l.41.48q4.26,4.89,7.94,9.62c4.93,6.28,9.18,12.33,12.94,18.07,6.83,11.64,14,25.6,22,36.44,3.53,5.36,6.93,9.54,10.8,12.24a36.71,36.71,0,0,0,4.51,2.61,28.35,28.35,0,0,0,9.92,2.89A18.48,18.48,0,0,0,784.36,158l.46-.48h0a4.19,4.19,0,0,0,.2-.49h0C788.54,147.63,783.54,130.88,775.44,113.41ZM534.64,35.09s0,0,0,0l.05-.05.28-.26.15-.13Z" style="fill:url(#Dégradé_sans_nom_40)"/><path d="M784.78,157.63c-1.9,4.43-5.87,7.06-12.55,7.12h0c-5.88.05-13.85-1.92-24.35-6.4l-.08,0-1.39-.61c7,2.93,11.34-.26,12.08-2.39a2.37,2.37,0,0,0,.09-.36,36.71,36.71,0,0,0,4.51,2.61,28.35,28.35,0,0,0,9.92,2.89A18.48,18.48,0,0,0,784.36,158,5.14,5.14,0,0,0,784.78,157.63Z" style="fill:url(#Dégradé_sans_nom_39)"/><path d="M337.56,389.65c-.06-.48-.11-1-.15-1.45h0C337.47,388.68,337.51,389.17,337.56,389.65Z" style="fill:#283593"/><path d="M650.93,89.7a221.52,221.52,0,0,0-17.29-16.65A151.28,151.28,0,0,1,650.93,89.7Z" style="fill:#283593"/><path d="M780.52,213.53A186.11,186.11,0,0,1,759,208.87,199.07,199.07,0,0,0,780.52,213.53Z" style="fill:#283593"/><path d="M829.3,174.42c-2.73,12.2-8.62,23.87-15,31.55C820.65,198.2,826.53,186.45,829.3,174.42Z" style="fill:#283593"/><path d="M830.91,159.06c0-.52,0-1-.07-1.54,0-.2,0-.39-.05-.58a2.64,2.64,0,0,0,0-.28c0-.18,0-.35,0-.52s0-.31-.05-.46c0-.41-.08-.81-.13-1.21-.14-1-.32-1.91-.53-2.84-.09-.39-.18-.78-.28-1.17l0-.12a.29.29,0,0,1,0-.09l0-.12c-.09-.33-.18-.65-.28-1a.14.14,0,0,1,0-.06c-2.38-8.21-7.27-15.1-13.21-21.81-7.7-8.71-17.16-17.09-25.22-27.59-.6-.78-1.23-1.56-1.87-2.34l0,0c-9.61-11.6-23.68-23.1-34.46-31.14-8.41-6.27-14.82-10.43-15.53-10.89l0,0c9,9.86,25.32,34.35,36.22,57.67.07.15.14.31.22.46,8.1,17.47,13.1,34.22,9.58,43.61h0a4.19,4.19,0,0,1-.2.49h0a.3.3,0,0,1,0,.1c-1.9,4.43-5.87,7.06-12.55,7.12h0c-5.88.05-13.85-1.92-24.35-6.4l-.08,0a13.45,13.45,0,0,1-1.64-.72l0,0h0l-.18-.13c-.25-.18-.51-.36-.77-.57l-.08-.07a6.67,6.67,0,0,1-.53-.43,5.36,5.36,0,0,1-.54-.45c-.27-.22-.53-.46-.81-.71s-.56-.51-.84-.79-.76-.72-1.15-1.13c-.19-.18-.39-.38-.58-.59s-.4-.41-.59-.62l-.29-.3-.6-.65c-.2-.22-.4-.45-.61-.67l-.62-.7c-5.55-6.22-12.1-14.83-19.82-24.37l-.88-1.08c-.58-.72-1.18-1.45-1.79-2.19l-.91-1.1-.92-1.11-1.28-1.53c-16.16-19.17-37-40.6-63.23-53.63l-2.32-1.12-.15-.07-.88-.4-1.33-.6a113.36,113.36,0,0,0-57.9-9.21c-6,1.68-12,3.49-18,5.46l-1.3.44c12.92-3.61,24.75-4.45,36.29-1.76a4.85,4.85,0,0,1,.49.11c9.81,2.36,19.42,7.27,29.32,15.18l.19.16.14.11A151.28,151.28,0,0,1,650.93,89.7c-.25.5-.48,1-.7,1.48s-.42,1-.6,1.44-.35.93-.5,1.39-.28.91-.4,1.35c-.06.22-.11.44-.16.66-.11.43-.19.86-.26,1.28s-.12.78-.16,1.16-.07.77-.08,1.14a2.29,2.29,0,0,0,0,.37c0,.13,0,.25,0,.37,0,.33,0,.65,0,1a1.55,1.55,0,0,0,0,.31c0,.1,0,.2,0,.3s0,.44.07.65c.06.47.15.93.25,1.38a0,0,0,0,0,0,0c.11.46.24.91.38,1.36s.31.88.5,1.31.31.71.48,1,.52,1,.81,1.43.5.79.77,1.17l.06.08.28.38.29.37c.22.29.46.59.71.88s.63.73,1,1.09l0,0c.33.36.68.71,1,1.06s.85.82,1.29,1.22l.94.84c.53.46,1.08.92,1.63,1.37l1.07.86c.71.58,1.45,1.15,2.18,1.71l1,.76.91.69,1.26,1,1.53,1.19.35.27,1.15.92c.52.42,1,.85,1.53,1.27l.91.8.42.38c.24.21.47.43.7.65l.2.19c.3.28.58.56.87.86l.52.54.68.75c.22.25.44.51.64.76s.27.32.39.49a5.85,5.85,0,0,1,.38.49l.43.6c.07.1.14.19.2.29l.18.27.09.15c.12.17.22.34.32.51.25.42.48.84.7,1.27.08.15.14.29.21.43s.13.3.2.44c.08.91.19,1.81.31,2.7.1.67.2,1.34.31,2s.23,1.31.37,2c.09.43.18.86.28,1.29.19.85.4,1.68.63,2.51,0,0,0,0,0,0,.23.83.47,1.65.73,2.46a0,0,0,0,1,0,0c.26.81.54,1.61.83,2.4.15.41.31.82.47,1.23.29.73.59,1.44.9,2.15l.07.16c.23.53.48,1.05.73,1.57.06.13.12.26.19.39.27.58.56,1.15.86,1.71l.5.94c.39.72.8,1.43,1.22,2.14s.77,1.26,1.17,1.88.81,1.23,1.23,1.84q.4.6.84,1.2c.42.59.86,1.17,1.3,1.75s.75,1,1.13,1.43q.87,1.08,1.8,2.13.4.48.84,1c.59.66,1.2,1.31,1.82,2,.28.3.57.59.86.88l.88.87c.54.54,1.1,1.07,1.66,1.58a3.83,3.83,0,0,0,.29.28c.93.85,1.87,1.69,2.83,2.5.66.56,1.33,1.12,2,1.66.34.28.68.55,1,.81s.69.55,1,.81.69.53,1,.79L709,186q1,.74,2,1.44c.36.25.72.5,1.09.74l.13.09c.69.47,1.38.92,2.09,1.37.37.24.74.48,1.12.71l1.13.7.14.09c.71.43,1.42.86,2.14,1.27.43.26.87.51,1.31.76.72.41,1.45.82,2.18,1.21s1.49.8,2.24,1.19,1.43.74,2.15,1.1l.35.18q1,.51,2,1c.76.37,1.53.73,2.3,1.08l1.13.52h0l0,0,.7.31c.45.21.91.41,1.37.6l1.38.59c1.53.65,3.08,1.28,4.62,1.88l1.62.62,1.62.6c1.11.41,2.22.8,3.33,1.18l2.54.86,2.54.82,2.55.79c1.36.41,2.72.8,4.07,1.17h0a199.07,199.07,0,0,0,21.52,4.66c.94.15,1.87.28,2.79.41l2,.26,2.34.27,1.26.13,1.81.17,1.24.09h.3l.27,0,1.28.08h.14c2.52.13,4.81.16,6.82.09,2.94,0,6.29-1.83,9.66-4.92l.68-.65c.21-.19.41-.4.61-.61l.69-.72.66-.73.64-.74c.21-.24.41-.49.62-.74,6.35-7.77,12.23-19.52,15-31.55.1-.44.2-.89.29-1.34s.19-.94.28-1.41.17-.94.25-1.41.14-.88.2-1.32l.06-.42c0-.11,0-.22,0-.33s.05-.37.07-.56c0-.4.1-.81.14-1.21s.07-.67.09-1c.07-.81.12-1.61.16-2.41,0-.4,0-.8,0-1.2C830.94,160.89,830.93,160,830.91,159.06Zm-31.08,27.88,0,.17a13.45,13.45,0,0,1-.89,2.73,10.11,10.11,0,0,1-.48.93,10.34,10.34,0,0,1-3.56,3.52l-.13.07c-3.58,1.81-8.2.89-11.55-2.12l0,0c-5.61-5.72-6.31-17.38,2.18-20.83a9.31,9.31,0,0,1,2.67-.51h.05c3.67-.13,6.92,2.05,9.09,5.18a3,3,0,0,1,.22.31,14,14,0,0,1,1.19,2,15.59,15.59,0,0,1,1.59,6.14A17.91,17.91,0,0,1,799.83,186.94Z" style="fill:url(#Dégradé_sans_nom_16)"/><path d="M800.16,184.49a17.91,17.91,0,0,1-.33,2.45l0,.17a13.45,13.45,0,0,1-.89,2.73,10.11,10.11,0,0,1-.48.93,10.34,10.34,0,0,1-3.56,3.52l-.13.07c-3.58,1.81-8.2.89-11.55-2.12l0,0c-5.61-5.72-6.31-17.38,2.18-20.83a9.31,9.31,0,0,1,2.67-.51h.05c3.67-.13,6.92,2.05,9.09,5.18a3,3,0,0,1,.22.31,14,14,0,0,1,1.19,2A15.59,15.59,0,0,1,800.16,184.49Z" style="fill:url(#Dégradé_sans_nom_17)"/><path d="M868.58,535.69h0l-.68.2-.14,0Z" style="fill:#283593"/><path d="M940.71,507.93l-.21.11q-1.86.94-3.75,1.86L934.43,511l-.09-.27Z" style="fill:#283593"/><path d="M883.27,585.52c-1.36.56-2.81,1.13-4.37,1.72l-1.08.4q-2.73,1-5.84,2c-1,.34-2.1.68-3.2,1s-2.22.67-3.37,1l-1.4.39-2.15.58-2.11.55-.1,0-2.28.55c-.76.19-1.54.37-2.33.54l-1.59.35q-2.81.62-5.77,1.15l-1.49.27c-1,.18-2,.35-3.05.51l-1.55.24-1.21.18-2.11.29-2.15.28-1.87.22c-1.26.15-2.53.28-3.82.4-53,5-109,17-181,26-30.95,3.87-72.81,6.45-110.86,8.2l.77-.18c-.37.07-.86.14-1.43.21h-.09c-49.27,2.26-92,3.16-96.2,3.73h-.11l-1.08,0-1.54.76-.07,0c-2.74,1-6.07,2.68-9.35,3.87-2.86,1-5.68,1.73-8,1.34-6-1-30-23-33-26-2.49-2.49-.84-4.3.36-5.41.25-.23.47-.42.64-.59l18-15c4-3,13-5,20-5,0,0,62.86-3.33,125.73-8.38,34.57-2.78,69.14-6.07,93.27-9.62,23.53-3.46,50.9-8.12,77.09-12.73h.05c49.45-8.72,94.67-17.27,101.86-17.27,8.77,0,24.52-1.91,42.19-6.23l.14,0,.14,0,.69-.17.06.2Z" style="fill:url(#Dégradé_sans_nom_51)"/><path d="M1084.25,479.61a11.73,11.73,0,0,1-2.82,2.59l-.18.12-3.09,2.13-1.11.75-2.11,1.44-.57.39c-1.95,1.31-4.26,2.87-6.89,4.62l-1.44,1-3.22,2.13-1.7,1.12-2.67,1.75-1.55,1q-3.9,2.53-8.27,5.33l-2.12,1.35c-19.69,12.49-45.52,28-71.75,41.32-1,.52-2,1-3,1.54-3.06,1.53-6.12,3-9.17,4.47-.94.45-1.88.9-2.82,1.33-3.08,1.45-6.16,2.85-9.21,4.19L934.43,511l2.32-1.13q1.89-.91,3.75-1.86l.21-.11h0c13.38-5.93,31.42-13.77,39.69-16.72,11.7-4.18,37.37-18.14,53.66-29.61,3.1-2.19,5.86-4.28,8.12-6.2h0l2-1.53c1.37-1.1,2.79-2.24,4.18-3.4.7-.58,1.39-1.17,2.06-1.75,3.67-3.18,6.81-6.28,7.9-8.36a.21.21,0,0,0,0-.06s0,0,0,0,0,0,0,0h0l0,0,.11-.06c.56-.29,2.78-.67,7.85,6.09,6,8,18,25,19,28A5.76,5.76,0,0,1,1084.25,479.61Z" style="fill:url(#Dégradé_sans_nom_53)"/><path d="M441.51,636.18l-.08,0a17.17,17.17,0,0,0-2.54.76l1.54-.76Z" style="fill:none"/><path d="M539.34,632.22l-.77.18h0l-.63,0C538.48,632.36,539,632.29,539.34,632.22Z" style="fill:none"/><path d="M925.75,515l-1.34.6a3.24,3.24,0,0,0,0-.43l1-.47A4,4,0,0,1,925.75,515Z" style="fill:none"/><path d="M940.71,507.93l-.21.11q-1.86.94-3.75,1.86L934.43,511l-.09-.27Z" style="fill:none"/><path d="M1058.33,440.34c-1.09,2.08-4.23,5.18-7.9,8.36-.67.58-1.36,1.17-2.06,1.75-1.39,1.16-2.81,2.3-4.18,3.4l-2,1.53.21-.18C1054.76,444.63,1057.78,441.05,1058.33,440.34Z" style="fill:none"/><path d="M1058.55,440.06l-.08.11,0,0h0s0,0,0,0,0,0,0,0a.21.21,0,0,1,0,.06c-.55.71-3.57,4.29-15.9,14.86l-.21.18h0c-4.18,3.24-7.56,5.65-7.77,5.8a92.2,92.2,0,0,0,5.74-15.2c.28-.89.55-1.79.8-2.69s.51-1.81.74-2.72.47-1.82.68-2.74c.16-.71.32-1.42.47-2.14.08-.35.15-.7.22-1.05.11-.53.22-1.07.31-1.61s.21-1.12.3-1.68a2.57,2.57,0,0,0,.08-.47c.09-.47.17-1,.24-1.44.27-1.73.51-3.48.69-5.24a.78.78,0,0,0,0-.16c0-.12,0-.22,0-.32a4.43,4.43,0,0,0,.06-.51l0-.25.57-3.77s11,13,13,16C1060.12,437.74,1059,439.56,1058.55,440.06Z" style="fill:#a1887f"/><path d="M1044.83,423.22q0,.19-.06.51A4.43,4.43,0,0,0,1044.83,423.22Z" style="fill:none"/><path d="M1058.33,440.34c-1.09,2.08-4.23,5.18-7.9,8.36-.67.58-1.36,1.17-2.06,1.75-1.39,1.16-2.81,2.3-4.18,3.4l-2,1.53.21-.18C1054.76,444.63,1057.78,441.05,1058.33,440.34Z" style="fill:none"/><path d="M538.54,632.4c-5.15,1.17-31.22,7.1-41.11,9.8-11,3-33,2-40,5-3.59,1.54-6.12,3.87-8.42,5.5s-4.14,2.48-6.58,1.5c-5-2-16-10-16-10s-2-1,3-3l.33-.14c3.32-1.34,7-3.08,9.06-4.07l.07,0a17.17,17.17,0,0,1,2.54-.76l.08,0h.11c10.12-.23,81.79-1.95,96.2-3.73h.09Z" style="fill:#a1887f"/><path d="M440.43,636.2l1.08,0-.08,0a17.17,17.17,0,0,0-2.54.76Z" style="fill:none"/><path d="M539.34,632.22l-.77.18h0l-.63,0C538.48,632.36,539,632.29,539.34,632.22Z" style="fill:none"/><path d="M952.49,564l-2-5.81L934.43,511l-.09-.27-.86-2.52a14.05,14.05,0,0,0-18.85-8.71l-35,14.28c-8.48,3.44-13.42,13.2-11,21.88h0v0l.06.2,14.62,49.59,3.42,11.59c2.81,9.53,12.36,13.53,21.12,8.91l35.83-18.86C951.55,583,955.44,572.6,952.49,564Zm-11.76-1.67a14,14,0,0,1-7.16,9.46L907.2,585.22c-5.84,3-12,1.18-14.53-4a10.84,10.84,0,0,1-.66-1.71L880,538.2a10.84,10.84,0,0,1-.11-5.54c0-.14.07-.28.11-.41a14.17,14.17,0,0,1,8.35-9.31l8.29-3.34,2.51,6.16,2.74,6.72a36.67,36.67,0,0,0,8.55-2.28c.57-.24,1.12-.48,1.64-.73.77-.36,1.5-.73,2.18-1.11L911.61,521l-2.34-6.49L914,512.6a10.28,10.28,0,0,1,11.43,2.13,4,4,0,0,1,.28.3h0a9.15,9.15,0,0,1,1.82,3.16l12.83,37.58a12.22,12.22,0,0,1,.32,6.49Z" style="fill:#90a4ae"/><path d="M486.94,98.69a.29.29,0,0,1,.05-.1h0C399.21,157.59,342.22,250.3,337.24,360a159,159,0,0,0,.17,28.24h0c0,.48.08,1,.13,1.45,3.76,34.83,19.56,63.48,43.15,86.61,37.11,35.29,94.52,59.11,160.23,72.37,14.65,2.67,29.43,4.68,44.09,6.07l5.84.64,4.37.45c2.8.28,5.61.55,8.45.81l.78.07,4.3.38,4.34.36,7.73.59,1.09.08,4.93.33c20.95,1.36,42.83,2.05,65.11,1.88h1.9c1.91,0,3.81,0,5.73-.08l1.61,0q3.21,0,6.45-.14l1.49,0c2,0,3.91-.11,5.86-.18l.47,0,2.26-.08,5.78-.24h.05c49.45-8.72,94.67-17.27,101.86-17.27,8.77,0,24.52-1.91,42.19-6.23l.14,0,.82-.24c-2.4-8.68,2.54-18.44,11-21.88l35-14.28a14.05,14.05,0,0,1,18.85,8.71l.86,2.52,6.37-2.83h0Q946.5,505,952,502c30.11-18.12,55.21-41.23,72.66-70.33a95.37,95.37,0,0,0,9-40.42,1,1,0,0,1,.13.09c-11.89-174-121.65-321.7-307.27-347.61q6.38,5.43,12.54,11.59h0l0,0c.71.46,7.12,4.62,15.53,10.89,10.78,8,24.85,19.54,34.46,31.14l0,0c.64.78,1.27,1.56,1.87,2.34,8.06,10.5,17.52,18.88,25.22,27.59,5.94,6.71,10.83,13.6,13.21,21.81a.14.14,0,0,0,0,.06c.1.32.19.64.28,1l0,.12a.29.29,0,0,0,0,.09l0,.12c.1.39.19.78.28,1.17.21.93.39,1.87.53,2.84.05.4.1.8.13,1.21,0,.15,0,.31.05.46s0,.34,0,.52a2.64,2.64,0,0,1,0,.28c0,.19,0,.38.05.58,0,.51.06,1,.07,1.54,0,.91,0,1.82,0,2.75,0,.4,0,.8,0,1.2,0,.8-.08,1.6-.16,2.41,0,.33-.05.66-.09,1s-.09.81-.14,1.21c0,.19,0,.37-.07.56s0,.22,0,.33l-.06.42c-.06.44-.13.88-.2,1.32s-.16.94-.25,1.41-.18.94-.28,1.41-.19.9-.29,1.34c-2.73,12.2-8.62,23.87-15,31.55-.21.25-.41.5-.62.74l-.64.74-.66.73-.69.72c-.2.21-.4.42-.61.61l-.68.65c-3.37,3.09-6.72,4.9-9.66,4.92-2,.07-4.3,0-6.82-.09h-.14l-1.28-.08-.27,0h-.3l-1.24-.09-1.81-.17-1.26-.13-2.34-.27-2-.26c-.92-.13-1.85-.26-2.79-.41A186.11,186.11,0,0,1,759,208.87h0c-1.35-.37-2.71-.76-4.07-1.17l-2.55-.79-2.54-.82-2.54-.86c-1.11-.38-2.22-.77-3.33-1.18l-1.62-.6-1.62-.62c-1.54-.6-3.09-1.23-4.62-1.88l-1.38-.59c-.46-.19-.92-.39-1.37-.6l-.7-.31,0,0h0l-1.13-.52c-.77-.35-1.54-.71-2.3-1.08s-1.36-.65-2-1l-.35-.18c-.72-.36-1.44-.72-2.15-1.1s-1.5-.78-2.24-1.19-1.46-.8-2.18-1.21c-.44-.25-.88-.5-1.31-.76-.72-.41-1.43-.84-2.14-1.27l-.14-.09-1.13-.7c-.38-.23-.75-.47-1.12-.71-.71-.45-1.4-.9-2.09-1.37l-.13-.09c-.37-.24-.73-.49-1.09-.74q-1-.71-2-1.44l-1.18-.86c-.35-.26-.7-.52-1-.79s-.7-.53-1-.81-.69-.53-1-.81c-.68-.54-1.35-1.1-2-1.66-1-.81-1.9-1.65-2.83-2.5a3.83,3.83,0,0,1-.29-.28c-.56-.51-1.12-1-1.66-1.58l-.88-.87c-.29-.29-.58-.58-.86-.88-.62-.64-1.23-1.29-1.82-2q-.44-.48-.84-1-.93-1.05-1.8-2.13c-.38-.47-.76-.95-1.13-1.43s-.88-1.16-1.3-1.75q-.43-.6-.84-1.2c-.42-.61-.83-1.22-1.23-1.84s-.79-1.25-1.17-1.88-.83-1.42-1.22-2.14l-.5-.94c-.3-.56-.59-1.13-.86-1.71-.07-.13-.13-.26-.19-.39-.25-.52-.5-1-.73-1.57l-.07-.16c-.31-.71-.61-1.42-.9-2.15-.16-.41-.32-.82-.47-1.23-.29-.79-.57-1.59-.83-2.4a0,0,0,0,0,0,0c-.26-.81-.5-1.63-.73-2.46,0,0,0,0,0,0-.23-.83-.44-1.66-.63-2.51-.1-.43-.19-.86-.28-1.29-.14-.65-.26-1.3-.37-2s-.21-1.33-.31-2c-.12-.89-.23-1.79-.31-2.7-.07-.14-.13-.29-.2-.44s-.13-.28-.21-.43c-.22-.43-.45-.85-.7-1.27-.1-.17-.2-.34-.32-.51l-.09-.15-.18-.27c-.06-.1-.13-.19-.2-.29l-.43-.6-.38-.49c-.12-.17-.26-.33-.39-.49s-.42-.51-.64-.76l-.68-.75-.52-.54c-.28-.29-.57-.57-.87-.86l-.2-.19c-.23-.22-.46-.44-.7-.65l-.42-.38-.91-.8c-.5-.42-1-.85-1.53-1.27l-1.15-.92-.35-.27L665,122.6l-1.26-1-.91-.69-1-.76c-.73-.56-1.47-1.13-2.18-1.71l-1.07-.86c-.55-.45-1.1-.91-1.63-1.37l-.94-.84c-.44-.4-.87-.81-1.29-1.22s-.7-.7-1-1.06l0,0c-.33-.36-.65-.72-1-1.09s-.49-.59-.71-.88l-.29-.37-.28-.38-.06-.08c-.27-.38-.53-.77-.77-1.17s-.56-.94-.81-1.43-.34-.69-.48-1-.35-.86-.5-1.31-.27-.9-.38-1.36a0,0,0,0,1,0,0c-.1-.45-.19-.91-.25-1.38,0-.21-.05-.43-.07-.65s0-.2,0-.3a1.55,1.55,0,0,1,0-.31c0-.32,0-.64,0-1,0-.12,0-.24,0-.37a2.29,2.29,0,0,1,0-.37c0-.37,0-.75.08-1.14s.09-.77.16-1.16.15-.85.26-1.28c0-.22.1-.44.16-.66.12-.44.25-.89.4-1.35s.31-.92.5-1.39.38-1,.6-1.44.45-1,.7-1.48a221.52,221.52,0,0,0-17.29-16.65l-.14-.11-.19-.16C623.41,64.87,613.8,60,604,57.6a4.85,4.85,0,0,0-.49-.11c-11.54-2.69-23.37-1.85-36.29,1.76l-.06,0h0l-.06,0q-4.41,1.24-9,2.9l-.29.1c-3.35,1.18-6.83,2.52-10.45,4.07h0l-1.1.48c-2.74,1.19-5.58,2.5-8.49,3.92l-.21.1-1.2.6-.37.18c-.81.39-1.63.81-2.46,1.24l0,0h0l-.06,0-.53.27Z" style="fill:url(#Dégradé_sans_nom_21)"/><path d="M940.73,562.27h0l-2.3.92s2,4-11,11a46.84,46.84,0,0,1-31,5l0,0,0,0-.59.34-.06,0,0,0-1.4.76,0,0-.34.17-1.27.66a10.84,10.84,0,0,1-.66-1.71L880,538.2a10.84,10.84,0,0,1-.11-5.54l1.55-.46a74.14,74.14,0,0,0,17.15.66c.68-.06,1.35-.12,2-.21l1.12-.15.15,0a36.67,36.67,0,0,0,8.55-2.28c.57-.24,1.12-.48,1.64-.73.77-.36,1.5-.73,2.18-1.11l.06,0c.49-.28,1-.55,1.4-.83l.71-.45.61-.42a19.85,19.85,0,0,0,5.39-5.41,2.85,2.85,0,0,0,.23-.37c.24-.39.45-.78.63-1.15s.22-.47.31-.69l0-.12c.15-.37.27-.74.38-1.09l.09-.34c0-.12.06-.23.08-.34s0-.22.07-.32a9.38,9.38,0,0,0,.15-1.17l1.35-.59a9.15,9.15,0,0,1,1.82,3.16l12.83,37.58A12.22,12.22,0,0,1,940.73,562.27Z" style="fill:#6d4c41"/><path d="M925.76,515l-1.35.59a3.24,3.24,0,0,0,0-.43l1-.47a4,4,0,0,1,.28.3Z" style="fill:none"/><path d="M940.73,562.28a14,14,0,0,1-7.16,9.46L907.2,585.22c-5.84,3-12,1.18-14.53-4,2.47-1.26,3.76-2,3.76-2a46.84,46.84,0,0,0,31-5c13-7,11-11,11-11Z" style="fill:none"/><path d="M901.88,532.48l-.15,0-1.12.15-2,.21a74.14,74.14,0,0,1-17.15-.66l-1.55.46c0-.14.07-.28.11-.41a14.17,14.17,0,0,1,8.35-9.31l8.29-3.34,2.51,6.16Z" style="fill:#5d4037"/><path d="M925.47,514.73l-1,.47a3.24,3.24,0,0,1,0,.43,9.38,9.38,0,0,1-.15,1.17c0,.1,0,.21-.07.32s-.05.22-.08.34l-.09.34c-.11.35-.23.72-.38,1.09l0,.12c-.09.22-.2.45-.31.69s-.39.76-.63,1.15a2.85,2.85,0,0,1-.23.37,19.85,19.85,0,0,1-5.39,5.41l-.61.42-.71.45c-.44.28-.91.55-1.4.83l-.06,0L911.61,521l-2.34-6.49L914,512.6A10.28,10.28,0,0,1,925.47,514.73Z" style="fill:#5d4037"/><path d="M925.76,515l-1.35.59a3.24,3.24,0,0,0,0-.43l1-.47a4,4,0,0,1,.28.3Z" style="fill:none"/><path d="M940.73,562.28a14,14,0,0,1-7.16,9.46L907.2,585.22c-5.84,3-12,1.18-14.53-4,2.47-1.26,3.76-2,3.76-2a46.84,46.84,0,0,0,31-5c13-7,11-11,11-11Z" style="fill:none"/><g style="opacity:0.51"><path d="M1047.22,688.5c-2.61,2.32-5.26,4.64-8,7C995.6,732.31,940.71,762.38,883,784.81a16.93,16.93,0,0,1-6.54,6.17c-4.48,2.3-33,11-46.67,14.92-11.51,3.27-12.14,1.39-12,.73,0,0-.05,0-.08,0a11.67,11.67,0,0,1-6.48,4.74c-4.9,1.59-27,6.9-27.74,7.06l4.67-4.11c-15.35,12.92-33.63,23.91-46.68,23.91l-.84,0c-235.9,164.63-486.94,236.91-615.63,136.89C25.42,991.71-10.16,956.78,2.43,891.58c-.22.82-.4,1.62-.59,2.42.27-1.32.57-2.66.89-4,0-.2.09-.4.14-.61,2.4-11.25,6.86-23.47,13.51-36.57v0l0,0a.08.08,0,0,1,0-.05,1,1,0,0,1,.09-.18c.09-.18.16-.36.26-.56,0,0,0,0,0,0,.09-.18.18-.37.29-.58l0,0h0a.09.09,0,0,0,0-.06l0,0,.08-.22c.59-1.25,1.2-2.51,1.8-3.76q1.1-2.26,2.24-4.54l0,0q1.16-2.29,2.36-4.61c1.39-2.64,2.81-5.29,4.29-8h0c9.11-18.58,23.06-40.24,43-65.44,0,0,0,0,0,0,2.46-3.3,4.06-5.38,4.65-6.14C105,654.07,181.53,539.87,297.24,437.25,286.52,456,285.63,478.74,295,500.71c5.76,13.8,6,12.85,6.46,14.05l1,1.8.18.34h0s0,0,0,.05l.61,1.09a1.13,1.13,0,0,0,.12.21c.72,1.28,1.42,2.51,2.11,3.68.42.72.86,1.44,1.3,2.17,1.79,2.95,3.51,5.58,5.19,8l1.22,1.77.53.76c.17.25.35.51.54.76,1.77,2.48,3.49,4.77,5.17,7,1.5,1.93,2.63,3.37,3.5,4.47.5.63,1,1.25,1.52,1.88l.29.36h0l.05.07.32.39,1.48,1.79h0c18.49,21.88,39.65,41.42,62.17,59.38-1.2,1.11-2.85,2.92-.36,5.41,3,3,27,25,33,26,2.36.39,5.18-.3,8-1.34l.29.2-.33.14c-5,2-3,3-3,3s11,8,16,10c2.44,1,4.4,0,6.58-1.5C640.89,748.13,921.82,774.64,1047.22,688.5Z" style="fill:#1a237e"/></g><path d="M1093.9,639.32c-11.08,19.3-27,35.63-46.68,49.18A383,383,0,0,0,1093.9,639.32Z" style="fill:url(#Dégradé_sans_nom_49-2)"/></g></g></svg>