<?xml version="1.0" encoding="utf-8"?>
<!-- Generator: Adobe Illustrator 24.0.0, SVG Export Plug-In . SVG Version: 6.00 Build 0)  -->
<svg version="1.1" id="Calque_1" xmlns="http://www.w3.org/2000/svg" xmlns:xlink="http://www.w3.org/1999/xlink" x="0px" y="0px"
	 viewBox="0 0 1052.5 510.1" style="enable-background:new 0 0 1052.5 510.1;" xml:space="preserve">
<style type="text/css">
	.st0{fill:#7C4DFF;}
	.st1{fill:#6200EA;}
	.st2{fill:#ECEFF1;}
	.st3{fill:#EC407A;}
	.st4{fill:#512DA8;}
	.st5{fill:#FF80AB;}
	.st6{fill:#212121;}
	.st7{fill:#FFFFFF;}
	.st8{fill:none;stroke:#512DA8;stroke-width:21.1212;stroke-linecap:round;stroke-linejoin:round;stroke-miterlimit:10;}
	.st9{fill:none;stroke:#212121;stroke-miterlimit:10;}
	.st10{fill:none;stroke:#212121;stroke-width:1.5017;stroke-miterlimit:10;}
	.st11{fill:none;stroke:#212121;stroke-width:1.7432;stroke-miterlimit:10;}
	.st12{fill:none;stroke:#212121;stroke-width:1.7846;stroke-miterlimit:10;}
	.st13{fill:none;stroke:#212121;stroke-width:2.7542;stroke-miterlimit:10;}
</style>
<g>
	<g>
		<path class="st0" d="M413.2,70.7L356.6,268l145.3-86.2L434.3,68C429.1,59.3,416,61,413.2,70.7z"/>
	</g>
	<g>
		<path class="st1" d="M420,102.6l-22.1,105l70.6-41.9l-37.9-63.9C427.6,96.9,421.1,97.4,420,102.6z"/>
	</g>
</g>
<g>
	<g>
		<path class="st0" d="M625.2,70.7L681.8,268l-145.3-86.2L604.1,68C609.3,59.3,622.4,61,625.2,70.7z"/>
	</g>
	<g>
		<path class="st1" d="M618.4,102.6l22.1,105l-70.6-41.9l37.9-63.9C610.8,96.9,617.3,97.4,618.4,102.6z"/>
	</g>
</g>
<g>
	<circle class="st0" cx="519.6" cy="334.1" r="176"/>
</g>
<g>
	<path class="st2" d="M455.8,468.5l27.6-26.1c0.8-0.7,0.8-1.9,0.1-2.7l-20.9-22c-1.1-1.2-3.1-0.5-3.3,1.1l-6.7,48.2
		C452.3,468.7,454.5,469.8,455.8,468.5z"/>
</g>
<g>
	<path class="st2" d="M581.3,468.5l-27.6-26.1c-0.8-0.7-0.8-1.9-0.1-2.7l20.9-22c1.1-1.2,3.1-0.5,3.3,1.1l6.7,48.2
		C584.8,468.7,582.7,469.8,581.3,468.5z"/>
</g>
<g>
	<g>
		<circle class="st3" cx="488.9" cy="377.8" r="30.7"/>
	</g>
	<g>
		<circle class="st3" cx="550.2" cy="377.8" r="30.7"/>
	</g>
	<path class="st3" d="M475.7,375.6h87.6c12.3,0,18.5,14.8,10,23.6l-25,25.7c-15.8,16.2-41.8,16.2-57.6,0l-25-25.7
		C457.2,390.4,463.5,375.6,475.7,375.6z"/>
	<g>
		<circle class="st4" cx="488.9" cy="377.8" r="11"/>
	</g>
	<g>
		<circle class="st4" cx="550.2" cy="377.8" r="11"/>
	</g>
	<g>
		<path class="st3" d="M525.9,359.2c-1.4,2-3.7,3.3-6.3,3.3s-4.9-1.3-6.3-3.3V380H525L525.9,359.2z"/>
	</g>
</g>
<g>
	<ellipse class="st5" cx="635" cy="360.2" rx="33.4" ry="11.3"/>
</g>
<g>
	<ellipse class="st5" cx="404.1" cy="360.2" rx="33.4" ry="11.3"/>
</g>
<g>
	<g>
		<circle class="st6" cx="601.6" cy="274.7" r="59.3"/>
		<g>
			<circle class="st7" cx="610.9" cy="245.6" r="15.7"/>
			<circle class="st7" cx="637" cy="272.7" r="10"/>
		</g>
	</g>
</g>
<g>
	<g>
		<circle class="st6" cx="436.2" cy="274.7" r="59.3"/>
		<g>
			<circle class="st7" cx="445.6" cy="245.6" r="15.7"/>
			<circle class="st7" cx="471.7" cy="272.7" r="10"/>
		</g>
	</g>
</g>
<g>
	<path class="st0" d="M-411.8,335c0.2,0,0.3,0,0.5,0h-1C-412.1,335.1-411.9,335.1-411.8,335z"/>
</g>
<g>
	<path class="st0" d="M-404.8,334.8c-2.3,0.1-4.6,0.2-7,0.2c-60.1-0.6-111.9-36.2-135.8-87.4c0,0,0,0,0,0c-2.2-4.8-4.2-9.7-6-14.7
		c-24.1-51.7-76.6-87.5-137.4-87.5c-23.5,0-45.7,5.3-65.6,14.9c-0.1-0.1-0.1-0.1-0.2-0.2c39-43,95.3-70,157.9-70
		c30.7,0,59.9,6.5,86.2,18.2c-10.4,19.8-16.2,42.4-16.2,66.3c0,58.7,35.3,109.2,85.8,131.4c4.6,2,9.3,3.8,14.2,5.4
		C-418.7,316.7-410.4,324.9-404.8,334.8z"/>
</g>
<g>
	<path class="st0" d="M-553.9,511.3c-14.5,3.1-29.5,4.7-44.9,4.7c-25.6,0-50.2-4.5-72.9-12.8c-6.6-2.4-13-5.1-19.2-8.1
		c-4.5-2.2-9-4.5-13.3-7c-0.3-0.2-0.6-0.3-0.9-0.5c-37.6-21.7-68-54.6-86.5-94c-2.5-5.3-4.8-10.8-6.9-16.4c-1.5-4.1-3-8.3-4.2-12.6
		c-0.1-0.3-0.2-0.5-0.2-0.8c-5.7-19.3-8.8-39.7-8.8-60.8c0-25.1,4.3-49.2,12.3-71.5c2.2-6.1,4.6-12,7.3-17.8
		c9.1-19.7,21.1-37.7,35.5-53.6c20.6,22.7,33.2,52.9,33.2,86.1c0,9-0.9,17.7-2.7,26.2c-3.5,16.9-10.3,32.6-19.8,46.3
		c-12.5,18.1-29.5,32.9-49.4,42.6c7.2-2,14.8-3.1,22.7-3.1c6.6,0,13,0.8,19.1,2.2c1.1,0.3,2.1,0.5,3.2,0.8c5,1.4,9.8,3.3,14.4,5.5
		c0.8,0.4,1.5,0.8,2.3,1.2c26.2,13.9,44.1,41.5,44.1,73.3c0,5.8-0.6,11.5-1.8,17c-1.3,6.1-3.2,12-5.7,17.5
		c14.9-18.6,37.8-30.6,63.4-30.6c6.4,0,12.7,0.8,18.7,2.2c1,0.3,2.1,0.5,3.1,0.8c4.9,1.4,9.6,3.2,14.1,5.4c0.8,0.4,1.5,0.7,2.2,1.2
		C-574.1,465.9-558.4,486.7-553.9,511.3z"/>
	<path class="st0" d="M-553.9,511.3c-14.5,3.1-29.5,4.7-44.9,4.7c-25.6,0-50.2-4.5-72.9-12.8c-6.6-2.4-13-5.1-19.2-8.1
		c-4.5-2.2-9-4.5-13.3-7c-0.3-0.2-0.6-0.3-0.9-0.5c-37.6-21.7-68-54.6-86.5-94c-2.5-5.3-4.8-10.8-6.9-16.4c-1.5-4.1-3-8.3-4.2-12.6
		c-0.1-0.3-0.2-0.5-0.2-0.8c-5.7-19.3-8.8-39.7-8.8-60.8c0-25.1,4.3-49.2,12.3-71.5c2.2-6.1,4.6-12,7.3-17.8
		c9.1-19.7,21.1-37.7,35.5-53.6c20.6,22.7,33.2,52.9,33.2,86.1c0,9-0.9,17.7-2.7,26.2c-3.5,16.9-10.3,32.6-19.8,46.3
		c-12.5,18.1-29.5,32.9-49.4,42.6c7.2-2,14.8-3.1,22.7-3.1c6.6,0,13,0.8,19.1,2.2c1.1,0.3,2.1,0.5,3.2,0.8c5,1.4,9.8,3.3,14.4,5.5
		c0.8,0.4,1.5,0.8,2.3,1.2c26.2,13.9,44.1,41.5,44.1,73.3c0,5.8-0.6,11.5-1.8,17c-1.3,6.1-3.2,12-5.7,17.5
		c14.9-18.6,37.8-30.6,63.4-30.6c6.4,0,12.7,0.8,18.7,2.2c1,0.3,2.1,0.5,3.1,0.8c4.9,1.4,9.6,3.2,14.1,5.4c0.8,0.4,1.5,0.7,2.2,1.2
		C-574.1,465.9-558.4,486.7-553.9,511.3z"/>
</g>
<g>
	<path class="st0" d="M-450.9,450.4c1.3,0.7,2.6,1.4,3.8,2.2c-18.4,18.6-40.1,33.9-64.3,44.8c-4.6,2.1-9.3,4-14.1,5.7
		c-9.1,3.3-18.5,6.1-28.1,8.2c0.4-38.2,31.5-69.1,69.9-69.1c5.5,0,10.9,0.6,16.1,1.9c0.9,0.2,1.8,0.4,2.7,0.7
		c4.2,1.2,8.3,2.7,12.1,4.6C-452.1,449.7-451.5,450-450.9,450.4z"/>
	<path class="st0" d="M-450.9,450.4c1.3,0.7,2.6,1.4,3.8,2.2c-18.4,18.6-40.1,33.9-64.3,44.8c-4.6,2.1-9.3,4-14.1,5.7
		c-9.1,3.3-18.5,6.1-28.1,8.2c0.4-38.2,31.5-69.1,69.9-69.1c5.5,0,10.9,0.6,16.1,1.9c0.9,0.2,1.8,0.4,2.7,0.7
		c4.2,1.2,8.3,2.7,12.1,4.6C-452.1,449.7-451.5,450-450.9,450.4z"/>
</g>
<g>
	<path class="st0" d="M-400,379.7c-2.3,6-4.9,11.9-7.7,17.6c-10.1,20.4-23.3,38.9-39,55c-5.4-7.6-8.6-16.9-8.6-26.9
		c0-25.7,20.8-46.5,46.5-46.5C-405.8,378.8-402.8,379.1-400,379.7z"/>
	<path class="st0" d="M-400,379.7c-2.3,6-4.9,11.9-7.7,17.6c-10.1,20.4-23.3,38.9-39,55c-5.4-7.6-8.6-16.9-8.6-26.9
		c0-25.7,20.8-46.5,46.5-46.5C-405.8,378.8-402.8,379.1-400,379.7z"/>
</g>
<g>
	<path class="st0" d="M258,546.1"/>
	<path class="st0" d="M258,546.1"/>
</g>
<g>
	<path class="st8" d="M-278.9,113.5c10.9,21,17.1,44.8,17.1,70c0,80.8-63.3,146.9-143,151.3"/>
</g>
<g>
	<path class="st8" d="M-553.5,232.9c-5.3-15.5-8.2-32.1-8.2-49.4c0-25.3,6.2-49.1,17.1-70"/>
</g>
<g>
	<path class="st8" d="M-756.5,160.3c-1.5,0.7-3,1.5-4.5,2.2"/>
</g>
<g>
	<path class="st8" d="M-547.6,247.6c-1.7-5-3.7-9.9-6-14.7"/>
</g>
<g>
	<path class="st8" d="M-539.4,295.9c-0.1-16.9-3-33.1-8.2-48.3"/>
</g>
<path class="st9" d="M-362.3,425.4c0,3.3-0.3,6.4-1,9.5c-1.3,6.1-3.7,11.8-7.2,16.8c-8.4,12.2-22.4,20.2-38.4,20.2
	c-8,0-15.5-2-22-5.5l0,0c-2.2-1.2-4.3-2.5-6.2-4c-3.5-2.6-6.5-5.7-9.1-9.2c-0.1-0.1-0.2-0.3-0.3-0.4c-0.1-0.1-0.2-0.3-0.3-0.4
	c-5.4-7.6-8.6-16.9-8.6-26.9c0-25.7,20.8-46.5,46.5-46.5c3,0,6,0.3,8.8,0.8c0.6,0.1,1.3,0.3,1.9,0.4c0.6,0.1,1.2,0.3,1.8,0.5
	c2.8,0.8,5.5,1.8,8.1,3.1c0.4,0.2,0.9,0.4,1.3,0.7C-372.3,392.1-362.3,407.6-362.3,425.4z"/>
<path class="st10" d="M-413.8,512.1c0,4.9-0.5,9.7-1.5,14.3c-1.9,9.2-5.6,17.8-10.8,25.3c-12.6,18.3-33.7,30.3-57.6,30.3
	c-16,0-30.6-5.3-42.4-14.3c-5.4-4.1-10.2-9-14.1-14.5c-6.2-8.5-10.6-18.6-12.4-29.4c-0.6-3.3-0.9-6.7-1-10.2c0,0,0,0,0,0
	c0-0.5,0-0.9,0-1.4c0-0.3,0-0.6,0-0.8c0.4-38.2,31.5-69.1,69.9-69.1c5.5,0,10.9,0.6,16.1,1.9c0.9,0.2,1.8,0.4,2.7,0.7
	c4.2,1.2,8.3,2.7,12.1,4.6c0.7,0.3,1.3,0.6,1.9,1c1.3,0.7,2.6,1.4,3.8,2.2c0.3,0.2,0.6,0.4,0.9,0.6c5.7,3.6,10.9,8.1,15.3,13.2l0,0
	C-420.2,478.6-413.8,494.6-413.8,512.1z"/>
<path class="st11" d="M-552.5,526.2c0,5.7-0.6,11.2-1.7,16.6c-2.2,10.7-6.5,20.6-12.5,29.3c-14.6,21.3-39.1,35.2-66.9,35.2
	c-18.5,0-35.6-6.2-49.2-16.6c-6.3-4.8-11.8-10.4-16.4-16.8c-9.8-13.4-15.5-29.8-15.5-47.6c0-11.9,2.6-23.3,7.2-33.5
	c0.8-1.7,1.6-3.4,2.5-5c2.3-4.3,5-8.3,8-12.1c14.9-18.6,37.8-30.6,63.4-30.6c6.4,0,12.7,0.8,18.7,2.2c1,0.3,2.1,0.5,3.1,0.8
	c4.9,1.4,9.6,3.2,14.1,5.4c0.8,0.4,1.5,0.7,2.2,1.2c21.4,11.4,37.1,32.1,41.7,56.8c0.1,0.7,0.3,1.4,0.4,2.2c0,0,0,0,0,0
	c0.5,3.3,0.8,6.7,1,10.2C-552.5,524.5-552.5,525.3-552.5,526.2z"/>
<path class="st12" d="M-689.6,441.2c0,5.8-0.6,11.5-1.8,17c-1.3,6.1-3.2,12-5.7,17.5c-2,4.4-4.4,8.6-7.1,12.5c0,0,0,0,0,0
	c-1.1,1.5-2.2,3-3.3,4.5c-15.2,19.2-38.7,31.5-65.1,31.5c-19,0-36.4-6.3-50.4-17c-6.4-4.9-12.1-10.7-16.8-17.2
	c-10-13.7-15.8-30.5-15.8-48.8c0-31.6,17.7-59.2,43.8-73.2c2.9-1.5,5.9-2.9,9-4.1c2.5-1,5-1.8,7.6-2.6c0,0,0,0,0,0
	c7.2-2,14.8-3.1,22.7-3.1c6.6,0,13,0.8,19.1,2.2c1.1,0.3,2.1,0.5,3.2,0.8c5,1.4,9.8,3.3,14.4,5.5c0.8,0.4,1.5,0.8,2.3,1.2
	C-707.5,381.8-689.6,409.4-689.6,441.2z"/>
<path class="st13" d="M-723.5,246.2c0,9-0.9,17.7-2.7,26.2c-3.5,16.9-10.3,32.6-19.8,46.3c-12.5,18.1-29.5,32.9-49.4,42.6
	c0,0,0,0,0,0c-2.4,1.2-4.9,2.3-7.4,3.3c-3,1.2-6.1,2.4-9.2,3.4c-12.5,4.1-25.8,6.3-39.7,6.3c-29.2,0-56.2-9.8-77.8-26.3
	c-9.9-7.5-18.6-16.5-25.9-26.6c-15.4-21.1-24.5-47.1-24.5-75.3c0-70.8,57.4-128.2,128.2-128.2c10.2,0,20,1.2,29.5,3.4
	c1.6,0.4,3.3,0.8,4.9,1.3c7.8,2.1,15.2,5,22.3,8.5c1.2,0.6,2.4,1.2,3.5,1.8c13.1,7,24.9,16.2,34.8,27.1
	C-736,182.8-723.5,213-723.5,246.2z"/>
<g>
	<path class="st0" d="M366,326.9c-1.6,3.8-3.6,7.4-5.8,10.7c-0.9,1-1.9,2-2.8,3c-2.4-1.6-5-3-7.8-4.2c-23.7-10-51,1.2-60.9,24.9
		c-3.9,9.2-4.6,19-2.5,28.1c-0.1,0.1-0.3,0.1-0.4,0.2c-0.9-1.2-1.7-2.4-2.7-3.5c-0.4-0.6-0.9-1.1-1.4-1.7c-2.8-3.2-5.9-6.3-9.4-9
		c-0.7-0.6-1.4-1.1-2.2-1.7c-4.3-3.1-9-5.8-14.1-7.9c-35.3-14.8-76,1.5-91.2,36.6c-0.1,0-0.2-0.1-0.4-0.1
		c5.4-24.5-1.1-49.7-16.4-68.5c-0.5-0.7-1-1.3-1.6-1.9c-3.3-3.8-6.9-7.3-10.9-10.4c-0.8-0.7-1.7-1.3-2.5-1.9
		c-5-3.6-10.4-6.7-16.4-9.2c-23.7-10-49.4-7.8-70.3,3.6c4.5-4.1,8.5-8.8,12-13.9c3.2-4.6,5.9-9.6,8.2-15
		c12.3-29.3,6.6-61.7-12.2-84.7c-0.5-0.7-1.1-1.3-1.6-2c-3.4-3.9-7.1-7.4-11.2-10.7c-0.9-0.7-1.7-1.3-2.6-2
		c-5.1-3.7-10.7-6.9-16.8-9.4c-7.3-3-14.7-5-22.2-5.9c22.1-1.3,43.5-8.3,62-20.2c14.1-9,26.4-20.8,36.2-35
		c4.9-7.1,9.2-14.8,12.6-23.1c12.8-30.5,13-63.1,2.8-91.9c22-1.1,44.6,2.6,66.2,11.7c56.1,23.6,90.5,76.9,92.8,133.9
		c-0.4,5.3-0.4,10.6-0.2,15.9c0,0,0,0,0,0c2.2,56.5,36.1,109.4,91.3,133.2c-0.2-0.1-0.3-0.1-0.5-0.2l0.9,0.4
		c-0.1-0.1-0.3-0.1-0.4-0.2c2.2,0.9,4.3,1.7,6.5,2.5C371.4,307.1,370.1,317.2,366,326.9z"/>
</g>
<g>
	<path class="st0" d="M686.5,326.9c1.6,3.8,3.6,7.4,5.8,10.7c0.9,1,1.9,2,2.8,3c2.4-1.6,5-3,7.8-4.2c23.7-10,51,1.2,60.9,24.9
		c3.9,9.2,4.6,19,2.5,28.1c0.1,0.1,0.3,0.1,0.4,0.2c0.9-1.2,1.7-2.4,2.7-3.5c0.4-0.6,0.9-1.1,1.4-1.7c2.8-3.2,5.9-6.3,9.4-9
		c0.7-0.6,1.4-1.1,2.2-1.7c4.3-3.1,9-5.8,14.1-7.9c35.3-14.8,76,1.5,91.2,36.6c0.1,0,0.2-0.1,0.4-0.1c-5.4-24.5,1.1-49.7,16.4-68.5
		c0.5-0.7,1-1.3,1.6-1.9c3.3-3.8,6.9-7.3,10.9-10.4c0.8-0.7,1.7-1.3,2.5-1.9c5-3.6,10.4-6.7,16.4-9.2c23.7-10,49.4-7.8,70.3,3.6
		c-4.5-4.1-8.5-8.8-12-13.9c-3.2-4.6-5.9-9.6-8.2-15c-12.3-29.3-6.6-61.7,12.2-84.7c0.5-0.7,1.1-1.3,1.6-2
		c3.4-3.9,7.1-7.4,11.2-10.7c0.9-0.7,1.7-1.3,2.6-2c5.1-3.7,10.7-6.9,16.8-9.4c7.3-3,14.7-5,22.2-5.9c-22.1-1.3-43.5-8.3-62-20.2
		c-14.1-9-26.4-20.8-36.2-35c-4.9-7.1-9.2-14.8-12.6-23.1c-12.8-30.5-13-63.1-2.8-91.9c-22-1.1-44.6,2.6-66.2,11.7
		c-56.1,23.6-90.5,76.9-92.8,133.9c0.4,5.3,0.4,10.6,0.2,15.9c0,0,0,0,0,0c-2.2,56.5-36.1,109.4-91.3,133.2c0.2-0.1,0.3-0.1,0.5-0.2
		l-0.9,0.4c0.1-0.1,0.3-0.1,0.4-0.2c-2.2,0.9-4.3,1.7-6.5,2.5C681.1,307.1,682.4,317.2,686.5,326.9z"/>
</g>
</svg>
