<svg xmlns="http://www.w3.org/2000/svg" xmlns:xlink="http://www.w3.org/1999/xlink" viewBox="0 0 1927.16 706.32"><defs><linearGradient id="Dégradé_sans_nom_117" x1="773.5" y1="608.28" x2="503.5" y2="2.16" gradientUnits="userSpaceOnUse"><stop offset="0" stop-color="#7c4dff"/><stop offset="0.63" stop-color="#651fff"/></linearGradient><linearGradient id="Dégradé_sans_nom_99" x1="-3.88" y1="524.31" x2="467.84" y2="10.38" gradientUnits="userSpaceOnUse"><stop offset="0" stop-color="#ff4081"/><stop offset="0.07" stop-color="#ea388f"/><stop offset="0.28" stop-color="#b020b6"/><stop offset="0.47" stop-color="#860fd2"/><stop offset="0.61" stop-color="#6c04e4"/><stop offset="0.7" stop-color="#6200ea"/></linearGradient><linearGradient id="Dégradé_sans_nom_69" x1="639.64" y1="30.98" x2="275.98" y2="692.76" gradientUnits="userSpaceOnUse"><stop offset="0.2" stop-color="#6200ea"/><stop offset="0.28" stop-color="#6e05e2"/><stop offset="0.41" stop-color="#8f12cc"/><stop offset="0.6" stop-color="#c328a9"/><stop offset="0.78" stop-color="#ff4081"/></linearGradient><linearGradient id="Dégradé_sans_nom_117-2" x1="-381.44" y1="608.28" x2="-651.44" y2="2.16" gradientTransform="matrix(-1, 0, 0, 1, 772.22, 0)" xlink:href="#Dégradé_sans_nom_117"/><linearGradient id="Dégradé_sans_nom_99-2" x1="-1158.82" y1="524.31" x2="-687.1" y2="10.38" gradientTransform="matrix(-1, 0, 0, 1, 772.22, 0)" xlink:href="#Dégradé_sans_nom_99"/><linearGradient id="Dégradé_sans_nom_69-2" x1="-515.3" y1="30.98" x2="-878.96" y2="692.76" gradientTransform="matrix(-1, 0, 0, 1, 772.22, 0)" xlink:href="#Dégradé_sans_nom_69"/><radialGradient id="Dégradé_sans_nom_160" cx="732.89" cy="243.51" fx="560.4541149012146" fy="218.724820445939" r="182.6" gradientTransform="matrix(0.59, 0.81, -0.56, 0.41, 435.66, -447.53)" gradientUnits="userSpaceOnUse"><stop offset="0" stop-color="#7c4dff"/><stop offset="0.17" stop-color="#7a49ff"/><stop offset="0.35" stop-color="#733bff"/><stop offset="0.55" stop-color="#6826ff"/><stop offset="0.59" stop-color="#651fff"/><stop offset="0.64" stop-color="#6422f4"/><stop offset="0.79" stop-color="#612ccf"/><stop offset="0.92" stop-color="#5f33b9"/><stop offset="1" stop-color="#5e35b1"/></radialGradient><radialGradient id="Dégradé_sans_nom_177" cx="700.78" cy="251.23" fx="533.6566173852651" r="173.92" gradientTransform="translate(112.06 -180.21) rotate(20) scale(1 0.81)" gradientUnits="userSpaceOnUse"><stop offset="0.4" stop-color="#ff4081"/><stop offset="0.51" stop-color="#fc3e7f"/><stop offset="0.59" stop-color="#f3367b"/><stop offset="0.66" stop-color="#e32a72"/><stop offset="0.72" stop-color="#ce1867"/><stop offset="0.74" stop-color="#c51162"/><stop offset="0.76" stop-color="#c01260"/><stop offset="0.86" stop-color="#b21359"/><stop offset="0.94" stop-color="#ad1457"/></radialGradient><radialGradient id="Dégradé_sans_nom_160-2" cx="330.58" cy="243.51" fx="158.14218078744298" fy="218.72482042752827" r="182.6" gradientTransform="matrix(-0.59, 0.81, 0.56, 0.41, 1258.34, -123.3)" xlink:href="#Dégradé_sans_nom_160"/><radialGradient id="Dégradé_sans_nom_177-2" cx="298.47" cy="251.23" fx="131.3446832714926" r="173.92" gradientTransform="matrix(-0.94, 0.34, 0.28, 0.76, 1442.07, -42.61)" xlink:href="#Dégradé_sans_nom_177"/><linearGradient id="Dégradé_sans_nom_131" x1="966.52" y1="816.52" x2="966.52" y2="104.81" gradientUnits="userSpaceOnUse"><stop offset="0.35" stop-color="#7c4dff"/><stop offset="0.65" stop-color="#651fff"/></linearGradient><linearGradient id="Dégradé_sans_nom_36" x1="966.02" y1="500.07" x2="966.02" y2="643.61" gradientUnits="userSpaceOnUse"><stop offset="0" stop-color="#ff80ab"/><stop offset="0.01" stop-color="#ff7ca9"/><stop offset="0.11" stop-color="#ff669a"/><stop offset="0.22" stop-color="#ff558f"/><stop offset="0.35" stop-color="#ff4987"/><stop offset="0.53" stop-color="#ff4282"/><stop offset="1" stop-color="#ff4081"/></linearGradient><radialGradient id="Dégradé_sans_nom_96" cx="850.98" cy="413.01" fx="878.4679616050228" fy="383.0023124995618" r="61.41" gradientUnits="userSpaceOnUse"><stop offset="0.24" stop-color="#424242"/><stop offset="1" stop-color="#212121"/></radialGradient><radialGradient id="Dégradé_sans_nom_94" cx="1078.18" cy="416.94" fx="1139.371548983867" r="65.31" gradientUnits="userSpaceOnUse"><stop offset="0.31" stop-color="#424242"/><stop offset="1" stop-color="#212121"/></radialGradient><radialGradient id="Dégradé_sans_nom_89" cx="1438.08" cy="495.43" r="54.39" gradientTransform="matrix(-1, 0, 0, 1, 2246.38, 0)" gradientUnits="userSpaceOnUse"><stop offset="0" stop-color="#ff80ab"/><stop offset="1" stop-color="#ff4081"/></radialGradient><radialGradient id="Dégradé_sans_nom_89-2" cx="1117.47" cy="495.43" r="54.39" xlink:href="#Dégradé_sans_nom_89"/></defs><title>bat</title><g id="Calque_2" data-name="Calque 2"><g id="Calque_1-2" data-name="Calque 1"><g id="wing"><path id="membrane" d="M46.34,299C2,421,16.57,550,75.59,654.82,143.72,549.52,277.77,501.25,400.66,546A273.8,273.8,0,0,1,524,635.9a156.4,156.4,0,0,1,228.21-78.22c-157.11-109.24-226.6-314.14-158-501.13h0q1.15-3.19,2.39-6.38L598.25,46c-220-81.24-465.1,28.9-550.09,248.13Q47.25,296.57,46.34,299Z" style="fill:#a0f"/><path id="finger" d="M752.2,577.69a19.9,19.9,0,0,1-11.4-3.58A447.13,447.13,0,0,1,635.49,471.43a449.43,449.43,0,0,1-60-421.76A20,20,0,0,1,613,63.44c-64.2,175-2.25,371.51,150.64,477.82a20,20,0,0,1-11.43,36.43Z" style="fill:url(#Dégradé_sans_nom_117)"/><path id="finger-2" data-name="finger" d="M75.06,675.55a20,20,0,0,1-17.45-10.19A446.89,446.89,0,0,1,27,292.91a.49.49,0,0,0,0-.11l1.82-4.9c0-.1.07-.19.11-.28A449.9,449.9,0,0,1,604.63,28a20,20,0,1,1-13.85,37.52c-208.72-77-443.95,29-524.46,236.46l-1.75,4.71a407,407,0,0,0,27.9,339.1,20,20,0,0,1-17.41,29.81Z" style="fill:url(#Dégradé_sans_nom_99)"/><path id="finger-3" data-name="finger" d="M619.67,42.82A20.54,20.54,0,0,0,596,26.05,450.45,450.45,0,0,0,226.79,539.38a20.55,20.55,0,0,0,20.28,17.4,21.25,21.25,0,0,0,3.17-.24,20.54,20.54,0,0,0,17.16-23.45c-30.5-196.8,87.12-385.26,269.45-449.4a450.93,450.93,0,0,0-29.76,565,20.55,20.55,0,0,0,33.29-24.1C415.73,452.38,445.22,209.75,607.5,72.23c.13-.11.26-.22.38-.34l2.59-2.17a20.47,20.47,0,0,0,7.4-14.42A20.41,20.41,0,0,0,619.67,42.82Z" style="fill:url(#Dégradé_sans_nom_69)"/></g><g id="wing-2" data-name="wing"><path id="membrane-2" data-name="membrane" d="M1880.81,299c44.38,121.94,29.78,251-29.24,355.8C1783.43,549.52,1649.38,501.25,1526.5,546a273.88,273.88,0,0,0-123.36,89.92,156.4,156.4,0,0,0-228.2-78.22c157.1-109.24,226.59-314.14,158-501.13h0c-.78-2.13-1.57-4.26-2.39-6.38L1328.9,46c220-81.24,465.11,28.9,550.1,248.13Q1879.92,296.57,1880.81,299Z" style="fill:#a0f"/><path id="finger-4" data-name="finger" d="M1175,577.69a19.9,19.9,0,0,0,11.4-3.58,447.32,447.32,0,0,0,105.31-102.68,449.43,449.43,0,0,0,60-421.76,20,20,0,1,0-37.55,13.77c64.2,175,2.25,371.51-150.65,477.82A20,20,0,0,0,1175,577.69Z" style="fill:url(#Dégradé_sans_nom_117-2)"/><path id="finger-5" data-name="finger" d="M1852.1,675.55a20,20,0,0,0,17.44-10.19,446.82,446.82,0,0,0,30.61-372.45.49.49,0,0,0,0-.11l-1.81-4.9c0-.1-.07-.19-.11-.28A449.91,449.91,0,0,0,1322.52,28a20,20,0,1,0,13.86,37.52c208.71-77,443.95,29,524.46,236.46l1.74,4.71a406.91,406.91,0,0,1-27.89,339.1,20,20,0,0,0,17.41,29.81Z" style="fill:url(#Dégradé_sans_nom_99-2)"/><path id="finger-6" data-name="finger" d="M1307.49,42.82a20.53,20.53,0,0,1,23.72-16.77,450.45,450.45,0,0,1,369.16,513.33,20.55,20.55,0,0,1-20.28,17.4,21.48,21.48,0,0,1-3.18-.24,20.54,20.54,0,0,1-17.15-23.45c30.5-196.8-87.13-385.26-269.45-449.4a451,451,0,0,1,29.76,565,20.55,20.55,0,0,1-33.29-24.1c124.64-172.21,95.16-414.84-67.12-552.36l-.39-.34c-.85-.73-1.72-1.45-2.58-2.17a20.43,20.43,0,0,1-7.4-14.42A20.41,20.41,0,0,1,1307.49,42.82Z" style="fill:url(#Dégradé_sans_nom_69-2)"/></g><g id="ear"><path id="outside" d="M656.36,334.86A115.65,115.65,0,0,0,857.27,220.27a117.52,117.52,0,0,0-11.35-16.62,114.8,114.8,0,0,0-17.85-17.5l-28.46-16.44L674,97.2a21.34,21.34,0,0,0-32,18.48v145h0v32.87a115.17,115.17,0,0,0,6.23,24.2A116.68,116.68,0,0,0,656.36,334.86Z" style="fill:url(#Dégradé_sans_nom_160)"/><path id="inside" d="M683.92,316.46a82.58,82.58,0,0,0,143.46-81.82,83.59,83.59,0,0,0-8.11-11.87,82.57,82.57,0,0,0-12.74-12.49L786.2,198.54l-89.66-51.77A15.23,15.23,0,0,0,673.69,160V263.5h0V287a81.71,81.71,0,0,0,4.45,17.27A83.23,83.23,0,0,0,683.92,316.46Z" style="fill:url(#Dégradé_sans_nom_177)"/></g><g id="ear-2" data-name="ear"><path id="outside-2" data-name="outside" d="M1275.82,334.86a115.65,115.65,0,1,1-171.71-148.71l28.46-16.44L1258.15,97.2a21.34,21.34,0,0,1,32,18.48v145h0v32.87a115.17,115.17,0,0,1-6.23,24.2A116.68,116.68,0,0,1,1275.82,334.86Z" style="fill:url(#Dégradé_sans_nom_160-2)"/><path id="inside-2" data-name="inside" d="M1248.25,316.46a82.57,82.57,0,0,1-143.45-81.82,83.59,83.59,0,0,1,8.11-11.87,81.69,81.69,0,0,1,12.74-12.49L1146,198.54l89.67-51.77A15.23,15.23,0,0,1,1258.49,160V263.5h0V287a82.36,82.36,0,0,1-10.24,29.48Z" style="fill:url(#Dégradé_sans_nom_177-2)"/></g><path id="head" d="M1009.73,693.57l166.78-107.73a79.65,79.65,0,0,0,31.59-94.23l-59.67-163.28a79.64,79.64,0,0,0-74.8-52.3H859.41a79.63,79.63,0,0,0-74.8,52.3L724.94,491.61a79.63,79.63,0,0,0,31.58,94.23L923.31,693.57A79.63,79.63,0,0,0,1009.73,693.57Z" style="fill:url(#Dégradé_sans_nom_131)"/><path id="dent" d="M927.29,630.65l-13.31,22c-1.36,2.19-5.25,2-5.83,0L889,595.06a2,2,0,0,1,.6-2.12L920,624.21A64,64,0,0,0,927.29,630.65Z" style="fill:#eceff1"/><path id="dent-2" data-name="dent" d="M1040.84,594.47a1.56,1.56,0,0,1-.12.59l-19.19,57.52c-.58,2.08-4.47,2.23-5.83,0l-12.63-20.85a64,64,0,0,0,8.83-7.56Z" style="fill:#eceff1"/><path id="groin" d="M1014.93,500.07a48.9,48.9,0,0,0-40.19,21s0,0,0,0a12.22,12.22,0,0,1-17.89-.67,49,49,0,0,0-82.34,52.85,21.93,21.93,0,0,0,5.58,10l9.48,9.74L920,624.21a64.14,64.14,0,0,0,91.92,0l28.94-29.74,11-11.27a22.06,22.06,0,0,0,5.48-9.52,49,49,0,0,0-42.35-73.61ZM917.1,566.6a17.56,17.56,0,0,1-17.56-17.55,18.49,18.49,0,0,1,.35-3.51A17.56,17.56,0,1,1,917.1,566.6Zm97.83,0a17.53,17.53,0,1,1,17.55-17.55A17.56,17.56,0,0,1,1014.93,566.6Z" style="fill:url(#Dégradé_sans_nom_36)"/><path d="M934.66,549.05a17.56,17.56,0,0,1-35.12,0,18.49,18.49,0,0,1,.35-3.51,17.57,17.57,0,0,1,34.77,3.51Z" style="fill:#f50057"/><path d="M1032.48,549.05a17.58,17.58,0,1,1-.36-3.51A17.55,17.55,0,0,1,1032.48,549.05Z" style="fill:#f50057"/><g id="eyes"><g id="eye"><ellipse id="pupille" cx="850.98" cy="413.01" rx="61.07" ry="61.75" style="fill:url(#Dégradé_sans_nom_96)"/><g id="reflet"><ellipse id="_02" data-name="02" cx="882.81" cy="388.45" rx="13.29" ry="16.35" transform="translate(-72.31 522.55) rotate(-31.74)" style="fill:#fff"/><ellipse id="_01" data-name="01" cx="896.31" cy="419.56" rx="10.41" ry="8.43" transform="translate(375.79 1261.27) rotate(-83.35)" style="fill:#fff"/></g></g><g id="eye-2" data-name="eye"><ellipse id="pupille-2" data-name="pupille" cx="1078.18" cy="416.94" rx="64.95" ry="65.67" style="fill:url(#Dégradé_sans_nom_94)"/><g id="reflet-2" data-name="reflet"><ellipse id="_02-2" data-name="02" cx="1112.04" cy="390.81" rx="14.13" ry="17.39" transform="translate(-39.27 643.5) rotate(-31.74)" style="fill:#fff"/><ellipse id="_01-2" data-name="01" cx="1126.4" cy="423.9" rx="11.07" ry="8.96" transform="translate(574.93 1493.64) rotate(-83.35)" style="fill:#fff"/></g></g></g><g id="faucettes"><g id="faucette"><ellipse cx="805.78" cy="523.15" rx="48.64" ry="26" style="fill:url(#Dégradé_sans_nom_89)"/></g><g id="faucette-2" data-name="faucette"><ellipse cx="1126.4" cy="523.15" rx="48.64" ry="26" style="fill:url(#Dégradé_sans_nom_89-2)"/></g></g></g></g></svg>