<svg xmlns="http://www.w3.org/2000/svg" xmlns:xlink="http://www.w3.org/1999/xlink" viewBox="0 0 1924.22 706.32"><defs><radialGradient id="Dégradé_sans_nom_211" cx="1565.9" cy="311.01" fx="1920.8822714056087" fy="196.93901474767102" r="552.44" gradientUnits="userSpaceOnUse"><stop offset="0.22" stop-color="#ff4081"/><stop offset="0.3" stop-color="#f73e88"/><stop offset="0.44" stop-color="#e13a9a"/><stop offset="0.6" stop-color="#bd32b7"/><stop offset="0.79" stop-color="#8c27df"/><stop offset="0.92" stop-color="#651fff"/></radialGradient><linearGradient id="Dégradé_sans_nom_181" x1="-384.38" y1="608.28" x2="-654.38" y2="2.16" gradientTransform="matrix(-1, 0, 0, 1, 766.34, 0)" gradientUnits="userSpaceOnUse"><stop offset="0" stop-color="#4527a0"/><stop offset="0.63" stop-color="#651fff"/></linearGradient><linearGradient id="Dégradé_sans_nom_180" x1="-1161.76" y1="524.31" x2="-690.04" y2="10.38" gradientTransform="matrix(-1, 0, 0, 1, 766.34, 0)" gradientUnits="userSpaceOnUse"><stop offset="0" stop-color="#4527a0"/><stop offset="0.29" stop-color="#5413c6"/><stop offset="0.55" stop-color="#5e05e0"/><stop offset="0.7" stop-color="#6200ea"/></linearGradient><linearGradient id="Dégradé_sans_nom_179" x1="-518.24" y1="30.98" x2="-881.9" y2="692.76" gradientTransform="matrix(-1, 0, 0, 1, 766.34, 0)" gradientUnits="userSpaceOnUse"><stop offset="0.2" stop-color="#6200ea"/><stop offset="0.34" stop-color="#5d06de"/><stop offset="0.59" stop-color="#5117be"/><stop offset="0.78" stop-color="#4527a0"/></linearGradient><radialGradient id="Dégradé_sans_nom_212" cx="2717.9" cy="311.01" fx="3072.8822714056114" fy="196.93901479939007" r="552.44" gradientTransform="matrix(-1, 0, 0, 1, 3076.22, 0)" gradientUnits="userSpaceOnUse"><stop offset="0.22" stop-color="#ff4081"/><stop offset="0.32" stop-color="#fc3c89"/><stop offset="0.48" stop-color="#f5309f"/><stop offset="0.68" stop-color="#e81dc3"/><stop offset="0.9" stop-color="#d703f4"/><stop offset="0.92" stop-color="#d500f9"/></radialGradient><linearGradient id="Dégradé_sans_nom_181-2" x1="-1536.38" y1="608.28" x2="-1806.38" y2="2.16" gradientTransform="translate(2309.88)" xlink:href="#Dégradé_sans_nom_181"/><linearGradient id="Dégradé_sans_nom_180-2" x1="-2313.76" y1="524.31" x2="-1842.04" y2="10.38" gradientTransform="translate(2309.88)" xlink:href="#Dégradé_sans_nom_180"/><linearGradient id="Dégradé_sans_nom_179-2" x1="-1670.24" y1="30.98" x2="-2033.9" y2="692.76" gradientTransform="translate(2309.88)" xlink:href="#Dégradé_sans_nom_179"/><radialGradient id="Dégradé_sans_nom_160" cx="729.95" cy="243.51" fx="557.5153394057359" fy="218.724820445939" r="182.6" gradientTransform="matrix(0.59, 0.81, -0.56, 0.41, 434.46, -445.16)" gradientUnits="userSpaceOnUse"><stop offset="0" stop-color="#7c4dff"/><stop offset="0.17" stop-color="#7a49ff"/><stop offset="0.35" stop-color="#733bff"/><stop offset="0.55" stop-color="#6826ff"/><stop offset="0.59" stop-color="#651fff"/><stop offset="0.64" stop-color="#6422f4"/><stop offset="0.79" stop-color="#612ccf"/><stop offset="0.92" stop-color="#5f33b9"/><stop offset="1" stop-color="#5e35b1"/></radialGradient><radialGradient id="Dégradé_sans_nom_177" cx="697.84" cy="251.23" fx="530.7178418897864" r="173.92" gradientTransform="translate(111.88 -179.21) rotate(20) scale(1 0.81)" gradientUnits="userSpaceOnUse"><stop offset="0.4" stop-color="#ff4081"/><stop offset="0.51" stop-color="#fc3e7f"/><stop offset="0.59" stop-color="#f3367b"/><stop offset="0.66" stop-color="#e32a72"/><stop offset="0.72" stop-color="#ce1867"/><stop offset="0.74" stop-color="#c51162"/><stop offset="0.76" stop-color="#c01260"/><stop offset="0.86" stop-color="#b21359"/><stop offset="0.94" stop-color="#ad1457"/></radialGradient><radialGradient id="Dégradé_sans_nom_160-2" cx="327.64" cy="243.51" fx="155.2034052919643" fy="218.72482042752827" r="182.6" gradientTransform="matrix(-0.59, 0.81, 0.56, 0.41, 1253.66, -120.93)" xlink:href="#Dégradé_sans_nom_160"/><radialGradient id="Dégradé_sans_nom_177-2" cx="295.53" cy="251.23" fx="128.40590777601392" r="173.92" gradientTransform="matrix(-0.94, 0.34, 0.28, 0.76, 1436.37, -41.61)" xlink:href="#Dégradé_sans_nom_177"/><linearGradient id="Dégradé_sans_nom_249" x1="963.58" y1="716.56" x2="963.58" y2="261.59" gradientUnits="userSpaceOnUse"><stop offset="0" stop-color="#512da8"/><stop offset="0.1" stop-color="#5832b6"/><stop offset="0.4" stop-color="#6c41de"/><stop offset="0.64" stop-color="#784af6"/><stop offset="0.78" stop-color="#7c4dff"/><stop offset="0.86" stop-color="#7e4fff"/><stop offset="0.91" stop-color="#8657ff"/><stop offset="0.94" stop-color="#9365ff"/><stop offset="0.97" stop-color="#a579ff"/><stop offset="0.99" stop-color="#b388ff"/></linearGradient></defs><title>laughing-bat</title><g id="Calque_2" data-name="Calque 2"><g id="Calque_2-2" data-name="Calque 2"><g id="bat"><g id="wing"><path id="membrane" d="M1877.87,299c44.38,121.94,29.78,251-29.24,355.8-68.14-105.3-202.19-153.57-325.07-108.84a273.8,273.8,0,0,0-123.35,89.92A156.4,156.4,0,0,0,1172,557.68c157.1-109.24,226.59-314.14,158-501.13h0c-.78-2.13-1.57-4.26-2.39-6.38L1326,46c220-81.24,465.1,28.9,550.09,248.13C1876.67,295.75,1877.28,297.38,1877.87,299Z" style="fill:url(#Dégradé_sans_nom_211)"/><path id="finger" d="M1172,577.69a19.9,19.9,0,0,0,11.4-3.58,447.13,447.13,0,0,0,105.31-102.68,449.43,449.43,0,0,0,60-421.76,20,20,0,0,0-37.55,13.77c64.2,175,2.25,371.51-150.65,477.82A20,20,0,0,0,1172,577.69Z" style="fill:url(#Dégradé_sans_nom_181)"/><path id="finger-2" data-name="finger" d="M1849.16,675.55a20,20,0,0,0,17.44-10.19,446.82,446.82,0,0,0,30.61-372.45.49.49,0,0,0,0-.11l-1.81-4.9c0-.1-.07-.19-.11-.28A449.9,449.9,0,0,0,1319.59,28a20,20,0,1,0,13.85,37.52c208.72-77,444,29,524.46,236.46l1.74,4.71a406.91,406.91,0,0,1-27.89,339.1,20,20,0,0,0,17.41,29.81Z" style="fill:url(#Dégradé_sans_nom_180)"/><path id="finger-3" data-name="finger" d="M1304.55,42.82a20.54,20.54,0,0,1,23.72-16.77,450.45,450.45,0,0,1,369.16,513.33,20.55,20.55,0,0,1-20.28,17.4,21.25,21.25,0,0,1-3.17-.24,20.54,20.54,0,0,1-17.16-23.45c30.5-196.8-87.12-385.26-269.45-449.4a450.93,450.93,0,0,1,29.76,565,20.55,20.55,0,0,1-33.29-24.1c124.65-172.21,95.16-414.84-67.12-552.36l-.39-.34c-.85-.73-1.71-1.45-2.58-2.17a20.47,20.47,0,0,1-7.4-14.42A20.41,20.41,0,0,1,1304.55,42.82Z" style="fill:url(#Dégradé_sans_nom_179)"/></g><g id="wing-2" data-name="wing"><path id="membrane-2" data-name="membrane" d="M46.34,299C2,421,16.57,550,75.59,654.82,143.72,549.52,277.77,501.25,400.66,546A273.8,273.8,0,0,1,524,635.9a156.4,156.4,0,0,1,228.21-78.22c-157.11-109.24-226.6-314.14-158-501.13h0q1.15-3.19,2.39-6.38L598.25,46c-220-81.24-465.1,28.9-550.09,248.13Q47.25,296.57,46.34,299Z" style="fill:url(#Dégradé_sans_nom_212)"/><path id="finger-4" data-name="finger" d="M752.2,577.69a19.9,19.9,0,0,1-11.4-3.58A447.13,447.13,0,0,1,635.49,471.43a449.43,449.43,0,0,1-60-421.76A20,20,0,0,1,613,63.44c-64.2,175-2.25,371.51,150.64,477.82a20,20,0,0,1-11.43,36.43Z" style="fill:url(#Dégradé_sans_nom_181-2)"/><path id="finger-5" data-name="finger" d="M75.06,675.55a20,20,0,0,1-17.45-10.19A446.89,446.89,0,0,1,27,292.91a.49.49,0,0,0,0-.11l1.82-4.9c0-.1.07-.19.11-.28A449.9,449.9,0,0,1,604.63,28a20,20,0,1,1-13.85,37.52c-208.72-77-443.95,29-524.46,236.46l-1.75,4.71a407,407,0,0,0,27.9,339.1,20,20,0,0,1-17.41,29.81Z" style="fill:url(#Dégradé_sans_nom_180-2)"/><path id="finger-6" data-name="finger" d="M619.67,42.82A20.54,20.54,0,0,0,596,26.05,450.45,450.45,0,0,0,226.79,539.38a20.55,20.55,0,0,0,20.28,17.4,21.25,21.25,0,0,0,3.17-.24,20.54,20.54,0,0,0,17.16-23.45c-30.5-196.8,87.12-385.26,269.45-449.4a450.93,450.93,0,0,0-29.76,565,20.55,20.55,0,0,0,33.29-24.1C415.73,452.38,445.22,209.75,607.5,72.23c.13-.11.26-.22.38-.34l2.59-2.17a20.47,20.47,0,0,0,7.4-14.42A20.41,20.41,0,0,0,619.67,42.82Z" style="fill:url(#Dégradé_sans_nom_179-2)"/></g><g id="head"><path id="outside" d="M653.42,334.86A115.65,115.65,0,1,0,825.13,186.15l-28.46-16.44L671.09,97.2a21.34,21.34,0,0,0-32,18.48v145h0v32.87a115.17,115.17,0,0,0,6.23,24.2A116.68,116.68,0,0,0,653.42,334.86Z" style="fill:url(#Dégradé_sans_nom_160)"/><path id="inside" d="M681,316.46a82.57,82.57,0,0,0,143.45-81.82,83.59,83.59,0,0,0-8.11-11.87,81.69,81.69,0,0,0-12.74-12.49l-20.32-11.74L693.6,146.77A15.23,15.23,0,0,0,670.75,160V263.5h0V287A82.36,82.36,0,0,0,681,316.46Z" style="fill:url(#Dégradé_sans_nom_177)"/><path id="outside-2" data-name="outside" d="M1272.88,334.86A115.65,115.65,0,0,1,1072,220.27a117.52,117.52,0,0,1,11.35-16.62,114.8,114.8,0,0,1,17.85-17.5l28.46-16.44L1255.22,97.2a21.34,21.34,0,0,1,32,18.48v145h0v32.87a115.17,115.17,0,0,1-6.23,24.2A116.68,116.68,0,0,1,1272.88,334.86Z" style="fill:url(#Dégradé_sans_nom_160-2)"/><path id="inside-2" data-name="inside" d="M1245.31,316.46a82.57,82.57,0,0,1-143.45-81.82,83.59,83.59,0,0,1,8.11-11.87,82.57,82.57,0,0,1,12.74-12.49L1143,198.54l89.66-51.77A15.23,15.23,0,0,1,1255.55,160V263.5h0V287a82.36,82.36,0,0,1-10.24,29.48Z" style="fill:url(#Dégradé_sans_nom_177-2)"/><path id="head-2" data-name="head" d="M1006.79,693.57l166.78-107.73a79.65,79.65,0,0,0,31.59-94.23l-59.67-163.28a79.64,79.64,0,0,0-74.8-52.3H856.47a79.64,79.64,0,0,0-74.8,52.3L722,491.61a79.63,79.63,0,0,0,31.58,94.23L920.37,693.57A79.63,79.63,0,0,0,1006.79,693.57Z" style="fill:url(#Dégradé_sans_nom_249)"/></g></g><path d="M1108.75,592.91a337.33,337.33,0,0,1-290.34,0c-41-19.6-52.4-72.73-22.87-107.31l.91-1.07a69.25,69.25,0,0,1,82.48-17.4,197.6,197.6,0,0,0,169.3,0,69.25,69.25,0,0,1,82.48,17.4l.9,1.07C1161.15,520.18,1149.78,573.31,1108.75,592.91Z" style="fill:#f50057"/><path d="M1088.88,555.17l-62.6-64.36a131.7,131.7,0,0,0-12.34-11.16,196.75,196.75,0,0,0,34.29-12.53,71,71,0,0,1,12.45-4.53l29.43,88.21A4.06,4.06,0,0,1,1088.88,555.17Z" style="fill:#eceff1"/><path d="M903.47,476.82a133.29,133.29,0,0,0-16,14L827.89,552a3.17,3.17,0,0,1,.24-1.23l30-89.84a69.81,69.81,0,0,1,20.81,6.16A197.74,197.74,0,0,0,903.47,476.82Z" style="fill:#eceff1"/><path d="M813.71,412.26c10.55-45.6,82-61.93,113.32-6.57" style="fill:none;stroke:#212121;stroke-linecap:round;stroke-linejoin:round;stroke-width:40px"/><path d="M998.63,405.69c31.26-55.36,102.76-39,113.31,6.57" style="fill:none;stroke:#212121;stroke-linecap:round;stroke-linejoin:round;stroke-width:40px"/></g></g></svg>