<svg xmlns="http://www.w3.org/2000/svg" viewBox="0 0 2042.16 1079.37"><title>fog_cloud_left</title><g id="Calque_2" data-name="Calque 2"><g id="Calque_8" data-name="Calque 8"><g style="opacity:0.15"><path d="M766.35,746.92H745.47a42.42,42.42,0,0,0-7.18-.61h20.88A42.42,42.42,0,0,0,766.35,746.92Z" style="fill:#bdbdbd"/><path d="M612.46,663a41,41,0,0,0-7.14.62H574.84A41.15,41.15,0,0,0,582,663Z" style="fill:#bdbdbd"/><path d="M766.35,746.92H745.47a42.42,42.42,0,0,0-7.18-.61h20.88A42.42,42.42,0,0,0,766.35,746.92Z" style="fill:#bdbdbd"/><path d="M766.35,746.92H745.47a42.42,42.42,0,0,0-7.18-.61h20.88A42.42,42.42,0,0,0,766.35,746.92Z" style="fill:#bdbdbd"/><path d="M1342.42,871.2a41.64,41.64,0,0,1-41.63,41.64H1128.4a41.64,41.64,0,1,1,0-83.27h172.39A41.63,41.63,0,0,1,1342.42,871.2Z" style="fill:#bdbdbd"/><path d="M612.46,663a41,41,0,0,0-7.14.62H574.84A41.15,41.15,0,0,0,582,663Z" style="fill:#bdbdbd"/><path d="M766.35,746.92H745.47a42.42,42.42,0,0,0-7.18-.61h20.88A42.42,42.42,0,0,0,766.35,746.92Z" style="fill:#bdbdbd"/><path d="M612.46,663a41,41,0,0,0-7.14.62H466.68a41.41,41.41,0,0,0-7.18-.62Z" style="fill:#bdbdbd"/><path d="M1560,675.85a41.51,41.51,0,0,0-29.44-12.19H1350.13a41.64,41.64,0,0,1,0-83.27h111.95a41.63,41.63,0,1,0,0-83.26H1111.75a41.63,41.63,0,1,0,0,83.26h68.15a41.64,41.64,0,1,1,0,83.27H745.07a41.64,41.64,0,0,1,0-83.27H857a41.63,41.63,0,0,0,0-83.26H817a41.64,41.64,0,0,1,10.07-82H958.17a41.63,41.63,0,0,0,0-83.26H375.93a41.63,41.63,0,0,0,0,83.26H656.87a41.64,41.64,0,0,1,10.08,82H41.63a41.63,41.63,0,0,0,0,83.26H98.07a41.64,41.64,0,0,1,0,83.27h-33a41.63,41.63,0,0,0,0,83.26H301.3a41.63,41.63,0,0,0,0-83.26h-33a41.64,41.64,0,0,1,0-83.27H574.84A41.63,41.63,0,0,1,582,663h30.47a41,41,0,0,0-7.14.62H443.77a41.63,41.63,0,0,0,0,83.26h22.91a41.64,41.64,0,0,1-7.18,82.65H161.29a41.64,41.64,0,0,0,0,83.27H574.84a41.63,41.63,0,1,1,0,83.26H506.69a41.64,41.64,0,1,0,0,83.27H857a41.64,41.64,0,0,0,0-83.27H745.07a41.63,41.63,0,1,1,0-83.26H925.48a41.64,41.64,0,0,0,0-83.27H891.25a41.63,41.63,0,0,1-7.15-82.65h646.44A41.63,41.63,0,0,0,1560,675.85ZM767.73,817.38a41.52,41.52,0,0,1-29.44,12.19H612.46a41.63,41.63,0,0,1-7.14-82.65H745.47a42.42,42.42,0,0,0-7.18-.61h20.88a42.42,42.42,0,0,0,7.18.61H745.47a41.65,41.65,0,0,1,22.26,70.46Z" style="fill:#bdbdbd"/><path d="M2042.16,41.63a41.63,41.63,0,0,1-41.63,41.64H1635.7a41.63,41.63,0,0,0,0,83.26h20.67a41.64,41.64,0,0,1,0,83.27H1371.11a41.63,41.63,0,1,0,0,83.26h33a41.64,41.64,0,0,1,0,83.27H1167.88a41.64,41.64,0,0,1,0-83.27h33a41.63,41.63,0,1,0,0-83.26H1074.12a41.64,41.64,0,0,1,0-83.27h408.62a41.63,41.63,0,1,0,0-83.26h-246.4a41.64,41.64,0,0,1,0-83.27h764.19a41.62,41.62,0,0,1,41.63,41.63Z" style="fill:#bdbdbd"/></g></g></g></svg>