<svg xmlns="http://www.w3.org/2000/svg" viewBox="0 0 2042.16 1079.37"><title>fog_cloud_right</title><g id="Calque_2" data-name="Calque 2"><g id="Calque_8" data-name="Calque 8"><g style="opacity:0.15"><path d="M1275.81,332.45h20.89a42.42,42.42,0,0,0,7.18.61H1283A41.41,41.41,0,0,0,1275.81,332.45Z" style="fill:#bdbdbd"/><path d="M1429.7,416.33a41.15,41.15,0,0,0,7.15-.62h30.47a41.24,41.24,0,0,0-7.15.62Z" style="fill:#bdbdbd"/><path d="M1275.81,332.45h20.89a42.42,42.42,0,0,0,7.18.61H1283A41.41,41.41,0,0,0,1275.81,332.45Z" style="fill:#bdbdbd"/><path d="M1275.81,332.45h20.89a42.42,42.42,0,0,0,7.18.61H1283A41.41,41.41,0,0,0,1275.81,332.45Z" style="fill:#bdbdbd"/><path d="M699.74,208.16a41.62,41.62,0,0,1,41.63-41.63H913.76a41.64,41.64,0,0,1,0,83.27H741.37A41.63,41.63,0,0,1,699.74,208.16Z" style="fill:#bdbdbd"/><path d="M1429.7,416.33a41.15,41.15,0,0,0,7.15-.62h30.47a41.24,41.24,0,0,0-7.15.62Z" style="fill:#bdbdbd"/><path d="M1275.81,332.45h20.89a42.42,42.42,0,0,0,7.18.61H1283A41.41,41.41,0,0,0,1275.81,332.45Z" style="fill:#bdbdbd"/><path d="M1429.7,416.33a41.15,41.15,0,0,0,7.15-.62h138.63a41.41,41.41,0,0,0,7.18.62Z" style="fill:#bdbdbd"/><path d="M482.18,403.52a41.51,41.51,0,0,0,29.44,12.19H692A41.64,41.64,0,0,1,692,499H580.08a41.63,41.63,0,1,0,0,83.26H930.41a41.63,41.63,0,1,0,0-83.26H862.26a41.64,41.64,0,0,1,0-83.27h434.83a41.64,41.64,0,0,1,0,83.27H1185.15a41.63,41.63,0,1,0,0,83.26h40a41.63,41.63,0,0,1-10.08,82H1084a41.64,41.64,0,0,0,0,83.27h582.24a41.64,41.64,0,1,0,0-83.27H1385.29a41.64,41.64,0,0,1-10.08-82h625.32a41.63,41.63,0,1,0,0-83.26H1944.1a41.64,41.64,0,1,1,0-83.27h33a41.63,41.63,0,1,0,0-83.26H1740.87a41.63,41.63,0,1,0,0,83.26h33a41.64,41.64,0,0,1,0,83.27H1467.32a41.63,41.63,0,0,1-7.15-82.65H1429.7a41.15,41.15,0,0,0,7.15-.62h161.54a41.63,41.63,0,0,0,0-83.26h-22.91a41.64,41.64,0,0,1,7.18-82.65h298.21a41.64,41.64,0,1,0,0-83.27H1467.32a41.63,41.63,0,1,1,0-83.26h68.16a41.64,41.64,0,0,0,0-83.27H1185.15a41.64,41.64,0,1,0,0,83.27h111.94a41.63,41.63,0,1,1,0,83.26H1116.68a41.64,41.64,0,0,0,0,83.27h34.23a41.63,41.63,0,0,1,7.15,82.65H511.62a41.63,41.63,0,0,0-29.44,71.07ZM1274.44,262a41.51,41.51,0,0,1,29.44-12.19H1429.7a41.63,41.63,0,0,1,7.15,82.65H1296.7a42.42,42.42,0,0,0,7.18.61H1283a41.41,41.41,0,0,0-7.18-.61h20.89A41.64,41.64,0,0,1,1274.44,262Z" style="fill:#bdbdbd"/><path d="M0,1037.73A41.63,41.63,0,0,1,41.63,996.1H406.46a41.63,41.63,0,1,0,0-83.26H385.8a41.64,41.64,0,1,1,0-83.27H671.06a41.63,41.63,0,1,0,0-83.26h-33a41.64,41.64,0,1,1,0-83.27H874.29a41.64,41.64,0,0,1,0,83.27h-33a41.63,41.63,0,1,0,0,83.26H968a41.64,41.64,0,0,1,0,83.27H559.42a41.63,41.63,0,1,0,0,83.26h246.4a41.64,41.64,0,1,1,0,83.27H41.63A41.64,41.64,0,0,1,0,1037.73Z" style="fill:#bdbdbd"/></g></g></g></svg>