<svg xmlns="http://www.w3.org/2000/svg" xmlns:xlink="http://www.w3.org/1999/xlink" viewBox="0 0 3236.8 1048"><defs><clipPath id="clip-path" transform="translate(0 -847.1)"><rect width="2794.8" height="1895.1" style="fill:none"/></clipPath></defs><title>manor_alt</title><g id="Calque_2" data-name="Calque 2"><g id="Calque_1-2" data-name="Calque 1"><g style="clip-path:url(#clip-path)"><g id="Calque_2-2" data-name="Calque 2"><g id="Calque_7" data-name="Calque 7"><path d="M0,1895.1V1642.6l1474.9.3,301.4-3.5a84.91,84.91,0,0,0,59-24.9l63.9-63.9a68.78,68.78,0,0,1,76.1-14.5,39.39,39.39,0,0,0,15.9,3.3,37.08,37.08,0,0,0,4.7-.3l1.2-.2,1-.2.5-.1c.8-.2,1.7-.3,2.5-.5h.1a1.42,1.42,0,0,0,.6-.2,14.24,14.24,0,0,0,1.6-.5l.7-.2c.5-.2.9-.3,1.4-.5l.9-.4.7-.3.3-.1.6-.3c.6-.3,1.3-.6,1.9-.9.3-.2.6-.3.9-.5l.9-.5c.8-.5,1.7-1,2.5-1.6a70.07,70.07,0,0,1,15.5-8.3l4.2-1.5a73.51,73.51,0,0,1,21.8-3.4h637.2a61,61,0,0,1,35.7,11.5l28,20.2a91.79,91.79,0,0,0,53.5,17.3h30.3c1.9,0,3.8,0,5.8.1,3.3.2,6.5.4,9.7.8s6.1.8,9.1,1.4a128.62,128.62,0,0,1,45.4,18.4l18.2,11.9,119.4,77.8a126.12,126.12,0,0,0,69,20.5h119.8v196H0Z" transform="translate(0 -847.1)" style="fill:#5e35b1"/><path d="M2077.4,1658.3a139.79,139.79,0,0,1,42.5-11.6l187.1-20.4a53.45,53.45,0,0,0,42-28.9l25.6-49.9c.1-.1.1-.3.2-.4a4.29,4.29,0,0,0-2.5-5.6l-56.7-21.6-1.8-.7h87l2.6.6,72,19.3a14.58,14.58,0,0,1,1.9.7,9.58,9.58,0,0,1,4.1,12.9l-30.3,58.8a68.14,68.14,0,0,1-51.5,36.3l-191.2,25.3a82.49,82.49,0,0,0-41.9,18.2l-247.9,203.8H1552.5Z" transform="translate(0 -847.1)" style="fill:#311b92"/><path d="M1634.8,1245.7l17,100,140,1,74,52h0l13-45-49-86-45-11-34-80,39-67-11,66,42,53,43,4,36,53,43-144-67-79,33-42-20-48h0l57,44-20,45,66,76h0l47-5,47-138,6,155-92,33-61,203,58-44,73-122-38,138-87,95,9.9,81c-3.1.4-6.1.8-9.1,1.4a128.62,128.62,0,0,0-45.4,18.4l-18.2,11.9-16.1-83.7-97-91h-153l-6-136-36-46Z" transform="translate(0 -847.1)" style="fill:#5e35b1"/><path d="M2014.8,1353.7l55-134-35,167-79,72,8.6,74.1c-3.3.1-6.5.4-9.7.8s-6.1.8-9.1,1.4l-12.8-90.4Z" transform="translate(0 -847.1)" style="fill:#9575cd"/><polygon points="1951.8 431.5 1999.8 335.5 2071.8 292.5 2085.8 147.5 2102.8 310.5 2003.8 339.5 1938.8 538.5 1951.8 431.5" style="fill:#9575cd"/><path d="M1888.8,972.7h0c2.1,1.2,67,39,66,41s-18,40-17,42,53.2,80.8,54,82l-80-74,15-44Z" transform="translate(0 -847.1)" style="fill:#9575cd"/><polygon points="1789.8 262.5 1787.8 325.5 1823.8 370.5 1872.8 375.5 1899.8 438.5 1857.8 399.5 1805.8 391.5 1763.8 325.5 1789.8 262.5" style="fill:#9575cd"/><path d="M1652.8,1253.7l10,83s146,6,152,6,50.3,55.1,51,56l-75-44-156,4-11-109-50-41Z" transform="translate(0 -847.1)" style="fill:#9575cd"/><polygon points="2259.8 315 2144.1 315 2201.9 238 2259.8 315" style="fill:#512da8"/><polygon points="2215.8 315 2144.1 315 2201.9 238 2215.8 315" style="fill:#9575cd"/><polygon points="2392.7 77 2277.1 77 2334.9 0 2392.7 77" style="fill:#512da8"/><polygon points="2348.7 77 2277.1 77 2334.9 0 2348.7 77" style="fill:#9575cd"/><polygon points="2688.8 194.9 2573.2 194.9 2631 119 2688.8 194.9" style="fill:#512da8"/><polygon points="2644.8 194.9 2573.2 194.9 2631 119 2644.8 194.9" style="fill:#9575cd"/><rect x="2268.5" y="77" width="80.3" height="18.7" style="fill:#512da8"/><rect x="2348.7" y="77" width="50.7" height="18.7" style="fill:#311b92"/><rect x="2274.5" y="95.8" width="74.2" height="96.4" style="fill:#9575cd"/><polygon points="2348.7 192.2 2348.7 205.9 2282.8 205.9 2274.5 192.2 2348.7 192.2" style="fill:#512da8"/><rect x="2282.8" y="205.9" width="65.9" height="297" style="fill:#9575cd"/><rect x="2402.9" y="350" width="6.8" height="9" style="fill:#311b92"/><rect x="2432.8" y="350" width="6.8" height="9" style="fill:#311b92"/><rect x="2462.6" y="350" width="6.8" height="9" style="fill:#311b92"/><rect x="2492.5" y="350" width="6.8" height="9" style="fill:#311b92"/><rect x="2522.4" y="350" width="6.8" height="9" style="fill:#311b92"/><rect x="2552.3" y="350" width="6.8" height="9" style="fill:#311b92"/><polygon points="2581.3 350 2581.3 503 2348.7 503 2348.7 205.9 2387.1 205.9 2387.1 350 2402.9 350 2402.9 359 2416 359 2416 350 2432.8 350 2432.8 359 2445.9 359 2445.9 350 2462.6 350 2462.6 359 2475.8 359 2475.8 350 2492.5 350 2492.5 359 2505.7 359 2505.7 350 2522.4 350 2522.4 359 2535.5 359 2535.5 350 2552.3 350 2552.3 359 2564.5 359 2564.5 350 2581.3 350" style="fill:#673ab7"/><polygon points="2644.8 312.1 2644.8 326.1 2578.9 326.1 2570.6 312.1 2644.8 312.1" style="fill:#512da8"/><rect x="2564.5" y="194.9" width="80.3" height="20.8" style="fill:#512da8"/><rect x="2644.8" y="194.9" width="49.9" height="20.8" style="fill:#311b92"/><rect x="2570.6" y="215.7" width="74.2" height="96.4" style="fill:#9575cd"/><rect x="2348.7" y="95.8" width="45" height="96.4" style="fill:#512da8"/><polygon points="2393.8 192.2 2388.2 205.9 2348.7 205.9 2348.7 192.2 2393.8 192.2" style="fill:#311b92"/><polygon points="2541.9 503 2388.1 503 2388.1 502.6 2388 502.6 2388 205.9 2388.1 205.9 2388.1 350 2436.1 397.8 2441.3 402.9 2466.8 428.3 2491.2 452.6 2503 464.2 2507.1 468.4 2532.7 493.8 2535.7 496.8 2541.9 503" style="fill:#5e35b1"/><rect x="2348.7" y="205.9" width="39.3" height="296.7" style="fill:#512da8"/><rect x="2348.7" y="502.6" width="39.3" height="0.4" style="fill:#5e35b1"/><rect x="2578.9" y="326.1" width="65.9" height="176.9" style="fill:#9575cd"/><rect x="2150.2" y="444.2" width="65.5" height="228.5" style="fill:#9575cd"/><rect x="2215.8" y="444.2" width="39.3" height="228.5" style="fill:#512da8"/><rect x="2215.8" y="336.4" width="44" height="96" style="fill:#512da8"/><rect x="2144.1" y="336.4" width="71.7" height="96" style="fill:#9575cd"/><rect x="2132.6" y="315" width="83.2" height="21.4" style="fill:#512da8"/><rect x="2215.8" y="315" width="51" height="21.4" style="fill:#311b92"/><polygon points="2215.8 432.4 2215.8 444.2 2150.2 444.2 2144.1 432.4 2215.8 432.4" style="fill:#512da8"/><polygon points="2259.8 432.4 2255 444.2 2215.8 444.2 2215.8 432.4 2259.8 432.4" style="fill:#311b92"/><rect x="2271.9" y="493.8" width="5.1" height="9.2" style="fill:#4527a0"/><rect x="2299.7" y="493.8" width="5.1" height="9.2" style="fill:#4527a0"/><rect x="2327.5" y="493.8" width="5.1" height="9.2" style="fill:#4527a0"/><rect x="2355.2" y="493.8" width="5.1" height="9.2" style="fill:#4527a0"/><rect x="2383" y="493.8" width="5.1" height="9.2" style="fill:#4527a0"/><rect x="2410.7" y="493.8" width="5.1" height="9.2" style="fill:#4527a0"/><rect x="2438.5" y="493.8" width="5.1" height="9.2" style="fill:#4527a0"/><polygon points="2464.8 493.8 2464.8 672.7 2415.9 672.7 2415.3 672 2403.5 658.9 2335.8 583.6 2328.5 575.5 2255 493.8 2271.9 493.8 2271.9 503 2282.8 503 2282.8 493.8 2299.7 493.8 2299.7 503 2310.6 503 2310.6 493.8 2327.5 493.8 2327.5 503 2338.3 503 2338.3 493.8 2355.2 493.8 2355.2 503 2366.1 503 2366.1 493.8 2383 493.8 2383 503 2393.8 503 2393.8 493.8 2410.7 493.8 2410.7 503 2421.6 503 2421.6 493.8 2438.5 493.8 2438.5 503 2449.4 503 2449.4 493.8 2464.8 493.8" style="fill:#9575cd"/><polygon points="2255 503 2255 672.7 2415.9 672.7 2255 493.8 2255 503" style="fill:#7e57c2"/><rect x="2487.3" y="493.8" width="4.8" height="9.2" style="fill:#9575cd"/><rect x="2514.6" y="493.8" width="4.8" height="9.2" style="fill:#9575cd"/><rect x="2541.9" y="493.8" width="4.8" height="9.2" style="fill:#9575cd"/><rect x="2569.2" y="493.8" width="4.8" height="9.2" style="fill:#9575cd"/><rect x="2596.4" y="493.8" width="4.8" height="9.2" style="fill:#9575cd"/><polygon points="2683.3 326.1 2644.8 326.1 2644.8 493.8 2628.5 493.8 2628.5 503 2617.5 503 2617.5 493.8 2601.2 493.8 2601.2 503 2590.3 503 2590.3 493.8 2573.9 493.8 2573.9 503 2563 503 2563 493.8 2546.6 493.8 2546.6 503 2535.7 503 2535.7 493.8 2519.4 493.8 2519.4 503 2508.4 503 2508.4 493.8 2492.1 493.8 2492.1 503 2481.1 503 2481.1 493.8 2464.8 493.8 2464.8 503 2464.8 672.7 2644.8 672.7 2644.8 672.9 2683.3 672.9 2683.3 326.1" style="fill:#512da8"/><rect x="2623.7" y="493.8" width="4.8" height="9.2" style="fill:#9575cd"/><path d="M2304.1,974.9v.3h0v42.9H2296V975.2h0v-.3c0-6.5,6.3-11.8,14-11.8a18.41,18.41,0,0,1,4.1.5C2308.3,965.1,2304.1,969.6,2304.1,974.9Z" transform="translate(0 -847.1)" style="fill:#512da8"/><path d="M2323.9,975.1h0V1018H2304V975.1h0v-.3c0-5.3,4.2-9.8,9.9-11.3,5.7,1.5,9.9,5.9,9.9,11.3A.77.77,0,0,1,2323.9,975.1Z" transform="translate(0 -847.1)" style="fill:#311b92"/><path d="M2600,1095.9v.3h0v39.4h-9.5v-39.4h0v-.3c0-6.5,7.3-15.3,16.2-15.3a24.16,24.16,0,0,1,4.7.5C2604.9,1082.6,2600,1090.6,2600,1095.9Z" transform="translate(0 -847.1)" style="fill:#512da8"/><path d="M2622.9,1096.1h0v39.4h-23v-39.4h0v-.3c0-5.3,4.8-13.3,11.5-14.8,6.7,1.5,11.5,9.4,11.5,14.8Z" transform="translate(0 -847.1)" style="fill:#311b92"/><path d="M2171.8,1212.5v.3h0v42.9h-8.2v-42.9h0v-.3c0-6.5,6.3-11.8,14-11.8a18.41,18.41,0,0,1,4.1.5C2175.9,1202.7,2171.8,1207.1,2171.8,1212.5Z" transform="translate(0 -847.1)" style="fill:#512da8"/><path d="M2191.6,1212.8h0v42.9h-19.8v-42.9h0v-.3c0-5.3,4.2-9.8,9.9-11.3,5.7,1.5,9.9,6,9.9,11.3Z" transform="translate(0 -847.1)" style="fill:#311b92"/><path d="M2551.1,1419.2v.4h0V1479h11.8v-59.4h0v-.4c0-9-9.1-16.3-20.2-16.3a23.24,23.24,0,0,0-5.9.7C2545,1405.7,2551.1,1411.9,2551.1,1419.2Z" transform="translate(0 -847.1)" style="fill:#9575cd"/><path d="M2522.4,1419.6h0V1479h28.7v-59.4h0v-.4c0-7.3-6-13.5-14.3-15.6-8.3,2-14.3,8.2-14.3,15.6A.76.76,0,0,0,2522.4,1419.6Z" transform="translate(0 -847.1)" style="fill:#311b92"/><path d="M2615,1419.2v.4h0V1479h11.8v-59.4h0v-.4c0-9-9.1-16.3-20.2-16.3a23.24,23.24,0,0,0-5.9.7C2609,1405.7,2615,1411.9,2615,1419.2Z" transform="translate(0 -847.1)" style="fill:#9575cd"/><path d="M2586.4,1419.6h0V1479h28.7v-59.4h0v-.4c0-7.3-6-13.5-14.3-15.6-8.3,2-14.3,8.2-14.3,15.6A.76.76,0,0,0,2586.4,1419.6Z" transform="translate(0 -847.1)" style="fill:#311b92"/><path d="M2502.9,1258.1v.4h0v57h-11.7v-57h0v-.4c0-8.6,9-15.6,20.1-15.6a23.24,23.24,0,0,1,5.9.7C2508.9,1245.1,2502.9,1251.1,2502.9,1258.1Z" transform="translate(0 -847.1)" style="fill:#512da8"/><path d="M2531.5,1258.5h0v57H2503v-57h0v-.4c0-7,6-13,14.3-14.9,8.2,2,14.3,7.9,14.3,14.9A.76.76,0,0,0,2531.5,1258.5Z" transform="translate(0 -847.1)" style="fill:#311b92"/><path d="M2438.3,1258.1v.4h0v57h-11.7v-57h0v-.4c0-8.6,9-15.6,20.1-15.6a23.79,23.79,0,0,1,5.9.7C2444.3,1245.1,2438.3,1251.1,2438.3,1258.1Z" transform="translate(0 -847.1)" style="fill:#512da8"/><path d="M2466.8,1258.5h0v57h-28.5v-57h0v-.4c0-7,6-13,14.3-14.9,8.3,2,14.3,7.9,14.3,14.9A.76.76,0,0,0,2466.8,1258.5Z" transform="translate(0 -847.1)" style="fill:#311b92"/><path d="M2330,1452.4a24.37,24.37,0,0,0,.1,2.7h-.1v64.7h-13.4v-64.6h.1a24.37,24.37,0,0,1-.1-2.7,43.42,43.42,0,0,1,43.4-43.4,50.35,50.35,0,0,1,6.7.5A43.25,43.25,0,0,0,2330,1452.4Z" transform="translate(0 -847.1)" style="fill:#512da8"/><path d="M2403.4,1455.1h0l.1,64.7h-73.4v-64.7h.1a24.37,24.37,0,0,1-.1-2.7,37.15,37.15,0,1,1,73.4,0C2403.5,1453.3,2403.4,1454.2,2403.4,1455.1Z" transform="translate(0 -847.1)" style="fill:#311b92"/><rect x="2644.8" y="215.7" width="45" height="96.4" style="fill:#512da8"/><polygon points="2689.9 312.1 2684.3 325.9 2644.8 325.9 2644.8 312.1 2689.9 312.1" style="fill:#311b92"/><rect x="2644.8" y="325.9" width="39.4" height="347.1" style="fill:#512da8"/><rect x="2180.9" y="542" width="27" height="12" style="fill:#512da8"/><rect x="2166.9" y="558" width="26" height="13" style="fill:#311b92"/><rect x="2266.9" y="657" width="26" height="12" style="fill:#4527a0"/><rect x="2431.9" y="589" width="28" height="14" style="fill:#512da8"/><rect x="2412.9" y="513" width="27" height="14" style="fill:#512da8"/><rect x="2396.9" y="530" width="27" height="13" style="fill:#311b92"/><rect x="2426.9" y="530" width="27" height="13" style="fill:#512da8"/><rect x="2626.9" y="538" width="26" height="13" style="fill:#311b92"/><rect x="2640.9" y="554" width="26" height="13" style="fill:#311b92"/><rect x="2604.9" y="458" width="27" height="14" style="fill:#512da8"/><rect x="2542.9" y="390" width="27" height="12" style="fill:#311b92"/><rect x="2527.9" y="374" width="27" height="12" style="fill:#311b92"/><rect x="2644.9" y="276" width="27" height="12" style="fill:#311b92"/><rect x="2310.9" y="242" width="27" height="13" style="fill:#311b92"/><rect x="2288.9" y="280" width="28" height="13" style="fill:#512da8"/><rect x="2274.5" y="95.8" width="74.2" height="12.2" style="fill:#673ab7"/><rect x="2348.7" y="95.8" width="45" height="12.2" style="fill:#4527a0"/><rect x="2144.1" y="336.4" width="72" height="12.2" style="fill:#673ab7"/><rect x="2216.1" y="336.4" width="43.7" height="12.2" style="fill:#4527a0"/><rect x="2570.4" y="215.7" width="74.2" height="12.3" style="fill:#673ab7"/><rect x="2644.7" y="215.7" width="45.1" height="12.2" style="fill:#4527a0"/></g></g></g></g></g></svg>