<svg xmlns="http://www.w3.org/2000/svg" viewBox="0 0 2710.9 1048"><title>manor</title><g id="Calque_2" data-name="Calque 2"><g id="Calque_1-2" data-name="Calque 1"><g id="Calque_2-2" data-name="Calque 2"><g id="Calque_7" data-name="Calque 7"><path d="M0,1048V795.52l948.9.35,301.41-3.51a84.91,84.91,0,0,0,59-24.86l63.91-63.91a68.9,68.9,0,0,1,76.12-14.51,39.83,39.83,0,0,0,15.85,3.29,38.22,38.22,0,0,0,4.66-.28l1.21-.16,1-.15.48-.09c.83-.16,1.65-.33,2.46-.54h.14a2.23,2.23,0,0,0,.6-.16c.53-.14,1-.29,1.56-.46l.71-.23c.46-.15.91-.31,1.36-.49l.92-.36.74-.31.3-.13.59-.27c.64-.29,1.28-.6,1.9-.94.32-.16.63-.33.94-.51l.92-.53a26.85,26.85,0,0,0,2.48-1.61,72.09,72.09,0,0,1,15.54-8.3c1.4-.54,2.81-1,4.24-1.49a72.27,72.27,0,0,1,21.8-3.36H2166.9a61.09,61.09,0,0,1,35.7,11.52l28,20.21A91.48,91.48,0,0,0,2284.1,721h30.34c1.93,0,3.85,0,5.77.13,3.26.15,6.5.43,9.73.82,3,.36,6.09.84,9.1,1.44a128.19,128.19,0,0,1,45.45,18.42l18.24,11.89,119.37,77.8a126.34,126.34,0,0,0,69,20.5h119.8v196H0Z" style="fill:#5e35b1"/><path d="M2638.14,1048H2272L2024.25,844.1a83,83,0,0,0-41.9-18.21l-191.21-25.28a67.94,67.94,0,0,1-51.51-36.25l-30.3-58.85a9.57,9.57,0,0,1,4.12-12.89,9.76,9.76,0,0,1,1.88-.73l72-19.26,2.57-.63h87l-1.76.67-56.69,21.6a4.36,4.36,0,0,0-2.52,5.64,3.3,3.3,0,0,0,.19.43l25.59,49.91a53.66,53.66,0,0,0,42,28.89l187.07,20.44a140.47,140.47,0,0,1,42.5,11.59Z" style="fill:#311b92"/><path d="M1578.9,388l-43,37-32.17,251.81a72.09,72.09,0,0,0-15.54,8.3c-.81.57-1.64,1.11-2.48,1.61l-.92.53c-.31.18-.62.35-.94.51-.62.34-1.26.65-1.9.94l-.59.27-.3.13-.74.31-.92.36c-.45.18-.9.34-1.36.49l-.71.23c-.52.17-1,.32-1.56.46l-.6.16H1475c-.81.21-1.63.38-2.46.54l-.48.09-1,.15-1.21.16V579l-51-45-28.08-75.54-.9-2.46,47,65,32,18-.14-.41h0L1436.9,446l-66-38V331l33,74,48,11,51,103V407l31-22-42-65,45-46-17,47Z" style="fill:#5e35b1"/><path d="M1485.71,686.72l-.92.53c-.31.18-.62.35-.94.51-.62.34-1.26.65-1.9.94l-.59.27-.3.13-.74.31-.92.36c-.45.18-.9.34-1.36.49l-.71.23c-.52.17-1,.32-1.56.46l-.6.16H1475c-.81.21-1.63.38-2.46.54l-.48.09-1,.15-1.21.16V585S1479.84,648.08,1485.71,686.72Z" style="fill:#9575cd"/><polygon points="1469.9 578.96 1418.9 533.96 1390.82 458.42 1425.9 525.96 1469.9 578.96" style="fill:#9575cd"/><polygon points="1468.76 538.55 1468.76 538.54 1436.9 445.96 1370.9 407.96 1370.9 331.05 1387.9 404.96 1438.9 440.96 1482.9 550.96 1468.76 538.55" style="fill:#9575cd"/><polygon points="1552.9 385.96 1514.9 411.96 1502.9 518.96 1502.9 406.96 1533.9 384.96 1491.9 319.96 1536.9 273.96 1502.9 321.96 1552.9 385.96" style="fill:#9575cd"/><path d="M2710.9,397l-36,46-6,136h-153l-97,91-16.12,83.7-18.24-11.89a128.19,128.19,0,0,0-45.45-18.42c-3-.6-6-1.08-9.1-1.44l9.91-81-87-95-38-138,73,122,58,44-61-203-92-33,6-155,47,138,47,5h0l66-76-20-45,57-44h0l-20,48,33,42-67,79,43,144,36-53,43-4,42-53-11-66,39,67-34,80-45,11-49,86,13,45h0l74-52,140-1,17-100Z" style="fill:#5e35b1"/><path d="M2351.9,633l-12.81,90.39c-3-.6-6-1.08-9.1-1.44s-6.48-.67-9.73-.82L2328.9,647l-79-72-35-167,55,134Z" style="fill:#9575cd"/><polygon points="2345.9 573.96 2280.9 374.96 2181.9 345.96 2198.9 182.96 2212.9 327.96 2284.9 370.96 2332.9 466.96 2345.9 573.96" style="fill:#9575cd"/><path d="M2357.9,208l15,44-80,74c.81-1.24,53-80,54-82s-16-40-17-42,63.94-39.8,66-41h0Z" style="fill:#9575cd"/><polygon points="2520.9 360.96 2478.9 426.96 2426.9 434.96 2384.9 473.96 2411.9 410.96 2460.9 405.96 2496.9 360.96 2494.9 297.96 2520.9 360.96" style="fill:#9575cd"/><path d="M2710.9,397l-50,41-11,109-156-4-75,44c.69-.86,45-56,51-56s152-6,152-6l10-83Z" style="fill:#9575cd"/><polygon points="1733.73 314.96 1618.06 314.96 1675.89 237.96 1733.73 314.96" style="fill:#512da8"/><polygon points="1689.73 314.96 1618.06 314.96 1675.89 237.96 1689.73 314.96" style="fill:#9575cd"/><polygon points="1866.68 77 1751.01 77 1808.84 0 1866.68 77" style="fill:#512da8"/><polygon points="1822.68 77 1751.01 77 1808.84 0 1822.68 77" style="fill:#9575cd"/><polygon points="2162.78 194.82 2047.11 194.82 2104.94 118.96 2162.78 194.82" style="fill:#512da8"/><polygon points="2118.78 194.82 2047.11 194.82 2104.94 118.96 2118.78 194.82" style="fill:#9575cd"/><rect x="1742.41" y="77" width="80.27" height="18.72" style="fill:#512da8"/><rect x="1822.68" y="77" width="50.69" height="18.72" style="fill:#311b92"/><rect x="1748.47" y="95.72" width="74.21" height="96.42" style="fill:#9575cd"/><polygon points="1822.68 192.14 1822.68 205.88 1756.76 205.88 1748.47 192.14 1822.68 192.14" style="fill:#512da8"/><rect x="1756.76" y="205.88" width="65.92" height="297.04" style="fill:#9575cd"/><rect x="1876.86" y="349.92" width="6.8" height="9" style="fill:#311b92"/><rect x="1906.73" y="349.92" width="6.8" height="9" style="fill:#311b92"/><rect x="1936.6" y="349.92" width="6.8" height="9" style="fill:#311b92"/><rect x="1966.48" y="349.92" width="6.79" height="9" style="fill:#311b92"/><rect x="1996.35" y="349.92" width="6.79" height="9" style="fill:#311b92"/><rect x="2026.22" y="349.92" width="6.8" height="9" style="fill:#311b92"/><polygon points="2055.21 349.92 2055.21 502.92 1822.68 502.92 1822.68 205.88 1861.04 205.88 1861.04 349.92 1876.86 349.92 1876.86 358.92 1890 358.92 1890 349.92 1906.73 349.92 1906.73 358.92 1919.88 358.92 1919.88 349.92 1936.6 349.92 1936.6 358.92 1949.75 358.92 1949.75 349.92 1966.48 349.92 1966.48 358.92 1979.62 358.92 1979.62 349.92 1996.35 349.92 1996.35 358.92 2009.49 358.92 2009.49 349.92 2026.22 349.92 2026.22 358.92 2038.48 358.92 2038.48 349.92 2055.21 349.92" style="fill:#673ab7"/><polygon points="2118.78 312.08 2118.78 326.02 2052.86 326.02 2044.57 312.08 2118.78 312.08" style="fill:#512da8"/><rect x="2038.48" y="194.82" width="80.3" height="20.83" style="fill:#512da8"/><rect x="2118.78" y="194.82" width="49.94" height="20.83" style="fill:#311b92"/><rect x="2044.57" y="215.65" width="74.21" height="96.43" style="fill:#9575cd"/><rect x="1822.68" y="95.72" width="45.04" height="96.42" style="fill:#512da8"/><polygon points="1867.72 192.14 1862.18 205.88 1822.68 205.88 1822.68 192.14 1867.72 192.14" style="fill:#311b92"/><polygon points="2015.84 502.92 1862.08 502.92 1862.08 502.55 1861.95 502.55 1861.95 205.88 1862.08 205.88 1862.08 349.92 1910.1 397.71 1915.25 402.83 1940.78 428.23 1965.18 452.51 1976.92 464.19 1981.08 468.33 2006.61 493.74 2009.66 496.77 2015.84 502.92" style="fill:#5e35b1"/><rect x="1822.68" y="205.88" width="39.27" height="296.67" style="fill:#512da8"/><rect x="1822.68" y="502.55" width="39.27" height="0.41" style="fill:#5e35b1"/><rect x="2052.88" y="326.02" width="65.9" height="176.9" style="fill:#9575cd"/><rect x="1624.19" y="444.14" width="65.54" height="228.49" style="fill:#9575cd"/><rect x="1689.73" y="444.14" width="39.27" height="228.49" style="fill:#512da8"/><rect x="1689.73" y="336.39" width="44" height="96" style="fill:#512da8"/><rect x="1618.06" y="336.39" width="71.69" height="96" style="fill:#9575cd"/><rect x="1606.55" y="314.96" width="83.2" height="21.43" style="fill:#512da8"/><rect x="1689.75" y="314.96" width="51.01" height="21.43" style="fill:#311b92"/><polygon points="1689.73 432.39 1689.73 444.14 1624.19 444.14 1618.06 432.39 1689.73 432.39" style="fill:#512da8"/><polygon points="1733.73 432.39 1729 444.14 1689.73 444.14 1689.73 432.39 1733.73 432.39" style="fill:#311b92"/><rect x="1745.9" y="493.74" width="5.14" height="9.18" style="fill:#4527a0"/><rect x="1773.66" y="493.74" width="5.14" height="9.18" style="fill:#4527a0"/><rect x="1801.42" y="493.74" width="5.14" height="9.18" style="fill:#4527a0"/><rect x="1829.18" y="493.74" width="5.14" height="9.18" style="fill:#4527a0"/><rect x="1856.94" y="493.74" width="5.14" height="9.18" style="fill:#4527a0"/><rect x="1884.7" y="493.74" width="5.14" height="9.18" style="fill:#4527a0"/><rect x="1912.46" y="493.74" width="5.14" height="9.18" style="fill:#4527a0"/><polygon points="1938.76 493.74 1938.76 672.63 1889.84 672.63 1889.24 671.96 1877.41 658.81 1809.79 583.59 1802.46 575.44 1729 493.74 1745.9 493.74 1745.9 502.92 1756.76 502.92 1756.76 493.74 1773.66 493.74 1773.66 502.92 1784.52 502.92 1784.52 493.74 1801.42 493.74 1801.42 502.92 1812.28 502.92 1812.28 493.74 1829.18 493.74 1829.18 502.92 1840.04 502.92 1840.04 493.74 1856.94 493.74 1856.94 502.92 1867.8 502.92 1867.8 493.74 1884.7 493.74 1884.7 502.92 1895.56 502.92 1895.56 493.74 1912.46 493.74 1912.46 502.92 1923.32 502.92 1923.32 493.74 1938.76 493.74" style="fill:#9575cd"/><polygon points="1729 502.92 1729 672.63 1889.84 672.63 1729 493.74 1729 502.92" style="fill:#7e57c2"/><rect x="1961.28" y="493.74" width="4.75" height="9.18" style="fill:#9575cd"/><rect x="1988.56" y="493.74" width="4.75" height="9.18" style="fill:#9575cd"/><rect x="2015.84" y="493.74" width="4.75" height="9.18" style="fill:#9575cd"/><rect x="2043.12" y="493.74" width="4.75" height="9.18" style="fill:#9575cd"/><rect x="2070.4" y="493.74" width="4.75" height="9.18" style="fill:#9575cd"/><polygon points="2157.24 326.02 2118.78 326.02 2118.78 493.74 2102.43 493.74 2102.43 502.92 2091.5 502.92 2091.5 493.74 2075.15 493.74 2075.15 502.92 2064.22 502.92 2064.22 493.74 2047.87 493.74 2047.87 502.92 2036.94 502.92 2036.94 493.74 2020.59 493.74 2020.59 502.92 2009.66 502.92 2009.66 493.74 1993.31 493.74 1993.31 502.92 1982.38 502.92 1982.38 493.74 1966.04 493.74 1966.04 502.92 1955.1 502.92 1955.1 493.74 1938.76 493.74 1938.76 502.92 1938.76 672.63 2118.78 672.63 2118.78 672.88 2157.24 672.88 2157.24 326.02" style="fill:#512da8"/><rect x="2097.68" y="493.74" width="4.75" height="9.18" style="fill:#9575cd"/><path d="M1778,127.76a1.31,1.31,0,0,0,0,.28h0v42.89h-8.14V128h0a1.31,1.31,0,0,1,0-.28c0-6.49,6.27-11.76,14-11.76a16.61,16.61,0,0,1,4.09.51C1782.22,118,1778,122.46,1778,127.76Z" style="fill:#512da8"/><path d="M1797.9,128h0v42.89H1778V128h0a1.31,1.31,0,0,1,0-.28c0-5.3,4.18-9.78,9.92-11.25,5.74,1.47,9.92,6,9.92,11.25A2.64,2.64,0,0,1,1797.9,128Z" style="fill:#311b92"/><path d="M2074,248.72a1.31,1.31,0,0,0,0,.28h0v39.39h-9.46V249h0a1.31,1.31,0,0,1,0-.28c0-6.49,7.26-15.26,16.21-15.26a22.26,22.26,0,0,1,4.74.51C2078.81,235.44,2074,243.42,2074,248.72Z" style="fill:#512da8"/><path d="M2096.9,249h0v39.39h-23V249h0a1.31,1.31,0,0,1,0-.28c0-5.3,4.84-13.28,11.49-14.75,6.65,1.47,11.49,9.45,11.49,14.75A2.64,2.64,0,0,1,2096.9,249Z" style="fill:#311b92"/><path d="M1645.75,365.34a1.31,1.31,0,0,0,0,.28h0v42.89h-8.17V365.62h0a1.31,1.31,0,0,1,0-.28c0-6.49,6.27-11.76,14-11.76a16.61,16.61,0,0,1,4.09.51C1649.9,355.56,1645.75,360,1645.75,365.34Z" style="fill:#512da8"/><path d="M1665.58,365.62h0v42.89h-19.83V365.62h0a1.31,1.31,0,0,1,0-.28c0-5.3,4.18-9.78,9.92-11.25,5.74,1.47,9.92,6,9.92,11.25A2.62,2.62,0,0,1,1665.58,365.62Z" style="fill:#311b92"/><path d="M2025,572.1a2.41,2.41,0,0,1,0,.38h0v59.38h11.8V572.48h0a2.41,2.41,0,0,0,0-.38c0-9-9.06-16.28-20.22-16.28a25.54,25.54,0,0,0-5.91.7C2019,558.56,2025,564.76,2025,572.1Z" style="fill:#9575cd"/><path d="M1996.4,572.48h0v59.38h28.66V572.48h0a2.41,2.41,0,0,0,0-.38c0-7.34-6-13.54-14.33-15.58-8.29,2-14.33,8.24-14.33,15.58A2.41,2.41,0,0,0,1996.4,572.48Z" style="fill:#311b92"/><path d="M2089,572.1v.38h0v59.38h11.8V572.48h0v-.38c0-9-9.05-16.28-20.22-16.28a25.54,25.54,0,0,0-5.91.7C2083,558.56,2089,564.76,2089,572.1Z" style="fill:#9575cd"/><path d="M2060.36,572.48h0v59.38H2089V572.48h0v-.38c0-7.34-6-13.54-14.33-15.58-8.29,2-14.32,8.24-14.32,15.58A2.41,2.41,0,0,0,2060.36,572.48Z" style="fill:#311b92"/><path d="M1976.9,411a2.41,2.41,0,0,0,0,.38h0v56.95h-11.74V411.38h0a2.41,2.41,0,0,1,0-.38c0-8.62,9-15.61,20.12-15.61a26.45,26.45,0,0,1,5.88.67C1982.9,398,1976.9,404,1976.9,411Z" style="fill:#512da8"/><path d="M2005.42,411.38h0v56.95H1976.9V411.38h0a2.41,2.41,0,0,1,0-.38c0-7,6-13,14.26-14.94,8.24,2,14.25,7.91,14.25,14.94A1.61,1.61,0,0,1,2005.42,411.38Z" style="fill:#311b92"/><path d="M1912.27,411v.38h0v56.95h-11.74V411.38h0a2.41,2.41,0,0,1,0-.38c0-8.62,9-15.61,20.12-15.61a25.85,25.85,0,0,1,5.87.67C1918.28,398,1912.27,404,1912.27,411Z" style="fill:#512da8"/><path d="M1940.76,411.38h0v56.95h-28.49V411.38h0V411c0-7,6-13,14.25-14.94,8.25,2,14.26,7.91,14.26,14.94C1940.78,411.13,1940.77,411.25,1940.76,411.38Z" style="fill:#311b92"/><path d="M1804,605.28q0,1.37.09,2.7H1804v64.65h-13.42V608h.09q-.09-1.34-.09-2.7A43.42,43.42,0,0,1,1834,561.88a42.89,42.89,0,0,1,6.69.52A43.41,43.41,0,0,0,1804,605.28Z" style="fill:#512da8"/><path d="M1877.32,608h.09v64.65H1804V608h.09q-.09-1.34-.09-2.7a37.16,37.16,0,1,1,73.42,0Q1877.41,606.65,1877.32,608Z" style="fill:#311b92"/><rect x="2118.78" y="215.65" width="45.04" height="96.43" style="fill:#512da8"/><polygon points="2163.82 312.08 2158.28 325.81 2118.78 325.81 2118.78 312.08 2163.82 312.08" style="fill:#311b92"/><rect x="2118.78" y="325.81" width="39.4" height="347.07" style="fill:#512da8"/><rect x="1654.9" y="541.96" width="27" height="12" style="fill:#512da8"/><rect x="1640.9" y="557.96" width="26" height="13" style="fill:#311b92"/><rect x="1740.9" y="656.96" width="26" height="12" style="fill:#4527a0"/><rect x="1905.9" y="588.96" width="28" height="14" style="fill:#512da8"/><rect x="1886.9" y="512.96" width="27" height="14" style="fill:#512da8"/><rect x="1870.9" y="529.96" width="27" height="13" style="fill:#311b92"/><rect x="1900.9" y="529.96" width="27" height="13" style="fill:#512da8"/><rect x="2100.9" y="537.96" width="26" height="13" style="fill:#311b92"/><rect x="2114.9" y="553.96" width="26" height="13" style="fill:#311b92"/><rect x="2078.9" y="457.96" width="27" height="14" style="fill:#512da8"/><rect x="2016.9" y="389.96" width="27" height="12" style="fill:#311b92"/><rect x="2001.9" y="373.96" width="27" height="12" style="fill:#311b92"/><rect x="2118.9" y="275.96" width="27" height="12" style="fill:#311b92"/><rect x="1784.9" y="241.96" width="27" height="13" style="fill:#311b92"/><rect x="1762.9" y="279.96" width="28" height="13" style="fill:#512da8"/><rect x="1748.47" y="95.72" width="74.21" height="12.24" style="fill:#673ab7"/><rect x="1822.68" y="95.72" width="45.04" height="12.24" style="fill:#4527a0"/><rect x="1618.06" y="336.39" width="71.98" height="12.24" style="fill:#673ab7"/><rect x="1690.04" y="336.39" width="43.69" height="12.24" style="fill:#4527a0"/><rect x="2044.4" y="215.65" width="74.21" height="12.25" style="fill:#673ab7"/><rect x="2118.61" y="215.65" width="45.05" height="12.24" style="fill:#4527a0"/></g></g></g></g></svg>