<?xml version="1.0" encoding="utf-8"?>
<!-- Generator: Adobe Illustrator 24.0.0, SVG Export Plug-In . SVG Version: 6.00 Build 0)  -->
<svg version="1.1" id="Calque_1" xmlns="http://www.w3.org/2000/svg" xmlns:xlink="http://www.w3.org/1999/xlink" x="0px" y="0px"
	 viewBox="0 0 2794.8 1895.1" style="enable-background:new 0 0 2794.8 1895.1;" xml:space="preserve">
<style type="text/css">
	.st0{clip-path:url(#SVGID_2_);}
	.st1{fill:#5E35B1;}
	.st2{fill:#311B92;}
	.st3{fill:#9575CD;}
	.st4{fill:#512DA8;}
	.st5{fill:#673AB7;}
	.st6{fill:#4527A0;}
	.st7{fill:#7E57C2;}
</style>
<title>manor</title>
<g>
	<g>
		<defs>
			<rect id="SVGID_1_" width="2794.8" height="1895.1"/>
		</defs>
		<clipPath id="SVGID_2_">
			<use xlink:href="#SVGID_1_"  style="overflow:visible;"/>
		</clipPath>
		<g id="Calque_2_1_" class="st0">
			<g id="Calque_7">
				<path class="st1" d="M0,1895.1v-252.5l1474.9,0.3l301.4-3.5c22.2-0.3,43.3-9.2,59-24.9l63.9-63.9c20-20,50.2-25.8,76.1-14.5
					c5,2.2,10.4,3.3,15.9,3.3c1.6,0,3.1-0.1,4.7-0.3l1.2-0.2l1-0.2l0.5-0.1c0.8-0.2,1.7-0.3,2.5-0.5h0.1c0.2,0,0.4-0.1,0.6-0.2
					c0.5-0.1,1-0.3,1.6-0.5l0.7-0.2c0.5-0.2,0.9-0.3,1.4-0.5l0.9-0.4l0.7-0.3l0.3-0.1l0.6-0.3c0.6-0.3,1.3-0.6,1.9-0.9
					c0.3-0.2,0.6-0.3,0.9-0.5l0.9-0.5c0.8-0.5,1.7-1,2.5-1.6c4.8-3.4,10-6.2,15.5-8.3c1.4-0.5,2.8-1,4.2-1.5
					c7.1-2.2,14.4-3.4,21.8-3.4h637.2c12.8,0,25.3,4,35.7,11.5l28,20.2c15.6,11.2,34.3,17.3,53.5,17.3h30.3c1.9,0,3.8,0,5.8,0.1
					c3.3,0.2,6.5,0.4,9.7,0.8c3.1,0.4,6.1,0.8,9.1,1.4c16.2,3.2,31.6,9.4,45.4,18.4l18.2,11.9l119.4,77.8
					c20.5,13.4,44.5,20.5,69,20.5h119.8v196h-1762H0V1895.1z"/>
				<path class="st2" d="M2077.4,1658.3c13.5-6.1,27.8-10,42.5-11.6l187.1-20.4c18-1.9,33.8-12.8,42-28.9l25.6-49.9
					c0.1-0.1,0.1-0.3,0.2-0.4c0.9-2.3-0.3-4.8-2.5-5.6l-56.7-21.6l-1.8-0.7h87l2.6,0.6l72,19.3c0.6,0.2,1.3,0.4,1.9,0.7
					c4.7,2.4,6.5,8.2,4.1,12.9l-30.3,58.8c-10.2,19.8-29.4,33.3-51.5,36.3l-191.2,25.3c-15.4,2-29.9,8.3-41.9,18.2l-247.9,203.8
					h-366.1L2077.4,1658.3z"/>
				<g>
					<path class="st1" d="M1634.8,1245.7l17,100l140,1l74,52l0,0l13-45l-49-86l-45-11l-34-80l39-67l-11,66l42,53l43,4l36,53l43-144
						l-67-79l33-42l-20-48l0,0l57,44l-20,45l66,76l0,0l47-5l47-138l6,155l-92,33l-61,203l58-44l73-122l-38,138l-87,95l9.9,81
						c-3.1,0.4-6.1,0.8-9.1,1.4c-16.2,3.2-31.6,9.4-45.4,18.4l-18.2,11.9l-16.1-83.7l-97-91h-153l-6-136l-36-46L1634.8,1245.7z"/>
					<path class="st3" d="M2014.8,1353.7l55-134l-35,167l-79,72l8.6,74.1c-3.3,0.1-6.5,0.4-9.7,0.8c-3.1,0.4-6.1,0.8-9.1,1.4
						l-12.8-90.4L2014.8,1353.7z"/>
					<polygon class="st3" points="1951.8,1278.6 1999.8,1182.6 2071.8,1139.6 2085.8,994.6 2102.8,1157.6 2003.8,1186.6 
						1938.8,1385.6 					"/>
					<path class="st3" d="M1888.8,972.7L1888.8,972.7c2.1,1.2,67,39,66,41s-18,40-17,42s53.2,80.8,54,82l-80-74l15-44L1888.8,972.7z
						"/>
					<polygon class="st3" points="1789.8,1109.6 1787.8,1172.6 1823.8,1217.6 1872.8,1222.6 1899.8,1285.6 1857.8,1246.6 
						1805.8,1238.6 1763.8,1172.6 					"/>
					<path class="st3" d="M1652.8,1253.7l10,83c0,0,146,6,152,6s50.3,55.1,51,56l-75-44l-156,4l-11-109l-50-41L1652.8,1253.7z"/>
				</g>
				<polygon class="st4" points="2259.8,1162.1 2144.1,1162.1 2201.9,1085.1 				"/>
				<polygon class="st3" points="2215.8,1162.1 2144.1,1162.1 2201.9,1085.1 				"/>
				<polygon class="st4" points="2392.7,924.1 2277.1,924.1 2334.9,847.1 				"/>
				<polygon class="st3" points="2348.7,924.1 2277.1,924.1 2334.9,847.1 				"/>
				<polygon class="st4" points="2688.8,1042 2573.2,1042 2631,966.1 				"/>
				<polygon class="st3" points="2644.8,1042 2573.2,1042 2631,966.1 				"/>
				<rect x="2268.5" y="924.1" class="st4" width="80.3" height="18.7"/>
				<rect x="2348.7" y="924.1" class="st2" width="50.7" height="18.7"/>
				<rect x="2274.5" y="942.9" class="st3" width="74.2" height="96.4"/>
				<polygon class="st4" points="2348.7,1039.3 2348.7,1053 2282.8,1053 2274.5,1039.3 				"/>
				<rect x="2282.8" y="1053" class="st3" width="65.9" height="297"/>
				<rect x="2402.9" y="1197.1" class="st2" width="6.8" height="9"/>
				<rect x="2432.8" y="1197.1" class="st2" width="6.8" height="9"/>
				<rect x="2462.6" y="1197.1" class="st2" width="6.8" height="9"/>
				<rect x="2492.5" y="1197.1" class="st2" width="6.8" height="9"/>
				<rect x="2522.4" y="1197.1" class="st2" width="6.8" height="9"/>
				<rect x="2552.3" y="1197.1" class="st2" width="6.8" height="9"/>
				<polygon class="st5" points="2581.3,1197.1 2581.3,1350.1 2348.7,1350.1 2348.7,1053 2387.1,1053 2387.1,1197.1 2402.9,1197.1 
					2402.9,1206.1 2416,1206.1 2416,1197.1 2432.8,1197.1 2432.8,1206.1 2445.9,1206.1 2445.9,1197.1 2462.6,1197.1 2462.6,1206.1 
					2475.8,1206.1 2475.8,1197.1 2492.5,1197.1 2492.5,1206.1 2505.7,1206.1 2505.7,1197.1 2522.4,1197.1 2522.4,1206.1 
					2535.5,1206.1 2535.5,1197.1 2552.3,1197.1 2552.3,1206.1 2564.5,1206.1 2564.5,1197.1 				"/>
				<polygon class="st4" points="2644.8,1159.2 2644.8,1173.2 2578.9,1173.2 2570.6,1159.2 				"/>
				<rect x="2564.5" y="1042" class="st4" width="80.3" height="20.8"/>
				<rect x="2644.8" y="1042" class="st2" width="49.9" height="20.8"/>
				<rect x="2570.6" y="1062.8" class="st3" width="74.2" height="96.4"/>
				<rect x="2348.7" y="942.9" class="st4" width="45" height="96.4"/>
				<polygon class="st2" points="2393.8,1039.3 2388.2,1053 2348.7,1053 2348.7,1039.3 				"/>
				<polygon class="st1" points="2541.9,1350.1 2388.1,1350.1 2388.1,1349.7 2388,1349.7 2388,1053 2388.1,1053 2388.1,1197.1 
					2436.1,1244.9 2441.3,1250 2466.8,1275.4 2491.2,1299.7 2503,1311.3 2507.1,1315.5 2532.7,1340.9 2535.7,1343.9 				"/>
				<rect x="2348.7" y="1053" class="st4" width="39.3" height="296.7"/>
				<rect x="2348.7" y="1349.7" class="st1" width="39.3" height="0.4"/>
				<rect x="2578.9" y="1173.2" class="st3" width="65.9" height="176.9"/>
				<rect x="2150.2" y="1291.3" class="st3" width="65.5" height="228.5"/>
				<rect x="2215.8" y="1291.3" class="st4" width="39.3" height="228.5"/>
				<rect x="2215.8" y="1183.5" class="st4" width="44" height="96"/>
				<rect x="2144.1" y="1183.5" class="st3" width="71.7" height="96"/>
				<rect x="2132.6" y="1162.1" class="st4" width="83.2" height="21.4"/>
				<rect x="2215.8" y="1162.1" class="st2" width="51" height="21.4"/>
				<polygon class="st4" points="2215.8,1279.5 2215.8,1291.3 2150.2,1291.3 2144.1,1279.5 				"/>
				<polygon class="st2" points="2259.8,1279.5 2255,1291.3 2215.8,1291.3 2215.8,1279.5 				"/>
				<rect x="2271.9" y="1340.9" class="st6" width="5.1" height="9.2"/>
				<rect x="2299.7" y="1340.9" class="st6" width="5.1" height="9.2"/>
				<rect x="2327.5" y="1340.9" class="st6" width="5.1" height="9.2"/>
				<rect x="2355.2" y="1340.9" class="st6" width="5.1" height="9.2"/>
				<rect x="2383" y="1340.9" class="st6" width="5.1" height="9.2"/>
				<rect x="2410.7" y="1340.9" class="st6" width="5.1" height="9.2"/>
				<rect x="2438.5" y="1340.9" class="st6" width="5.1" height="9.2"/>
				<polygon class="st3" points="2464.8,1340.9 2464.8,1519.8 2415.9,1519.8 2415.3,1519.1 2403.5,1506 2335.8,1430.7 
					2328.5,1422.6 2255,1340.9 2271.9,1340.9 2271.9,1350.1 2282.8,1350.1 2282.8,1340.9 2299.7,1340.9 2299.7,1350.1 
					2310.6,1350.1 2310.6,1340.9 2327.5,1340.9 2327.5,1350.1 2338.3,1350.1 2338.3,1340.9 2355.2,1340.9 2355.2,1350.1 
					2366.1,1350.1 2366.1,1340.9 2383,1340.9 2383,1350.1 2393.8,1350.1 2393.8,1340.9 2410.7,1340.9 2410.7,1350.1 2421.6,1350.1 
					2421.6,1340.9 2438.5,1340.9 2438.5,1350.1 2449.4,1350.1 2449.4,1340.9 				"/>
				<polygon class="st7" points="2255,1350.1 2255,1519.8 2415.9,1519.8 2255,1340.9 				"/>
				<rect x="2487.3" y="1340.9" class="st3" width="4.8" height="9.2"/>
				<rect x="2514.6" y="1340.9" class="st3" width="4.8" height="9.2"/>
				<rect x="2541.9" y="1340.9" class="st3" width="4.8" height="9.2"/>
				<rect x="2569.2" y="1340.9" class="st3" width="4.8" height="9.2"/>
				<rect x="2596.4" y="1340.9" class="st3" width="4.8" height="9.2"/>
				<polygon class="st4" points="2683.3,1173.2 2644.8,1173.2 2644.8,1340.9 2628.5,1340.9 2628.5,1350.1 2617.5,1350.1 
					2617.5,1340.9 2601.2,1340.9 2601.2,1350.1 2590.3,1350.1 2590.3,1340.9 2573.9,1340.9 2573.9,1350.1 2563,1350.1 2563,1340.9 
					2546.6,1340.9 2546.6,1350.1 2535.7,1350.1 2535.7,1340.9 2519.4,1340.9 2519.4,1350.1 2508.4,1350.1 2508.4,1340.9 
					2492.1,1340.9 2492.1,1350.1 2481.1,1350.1 2481.1,1340.9 2464.8,1340.9 2464.8,1350.1 2464.8,1519.8 2644.8,1519.8 
					2644.8,1520 2683.3,1520 				"/>
				<rect x="2623.7" y="1340.9" class="st3" width="4.8" height="9.2"/>
				<path class="st4" d="M2304.1,974.9c0,0.1,0,0.2,0,0.3l0,0v42.9h-8.1v-42.9l0,0c0-0.1,0-0.2,0-0.3c0-6.5,6.3-11.8,14-11.8
					c1.4,0,2.8,0.2,4.1,0.5C2308.3,965.1,2304.1,969.6,2304.1,974.9z"/>
				<path class="st2" d="M2323.9,975.1L2323.9,975.1v42.9H2304v-42.9l0,0c0-0.1,0-0.2,0-0.3c0-5.3,4.2-9.8,9.9-11.3
					c5.7,1.5,9.9,5.9,9.9,11.3C2323.9,975,2323.9,975.1,2323.9,975.1z"/>
				<path class="st4" d="M2600,1095.9c0,0.1,0,0.2,0,0.3l0,0v39.4h-9.5v-39.4l0,0c0-0.1,0-0.2,0-0.3c0-6.5,7.3-15.3,16.2-15.3
					c1.6,0,3.2,0.2,4.7,0.5C2604.9,1082.6,2600,1090.6,2600,1095.9z"/>
				<path class="st2" d="M2622.9,1096.1L2622.9,1096.1v39.4h-23v-39.4l0,0c0-0.1,0-0.2,0-0.3c0-5.3,4.8-13.3,11.5-14.8
					c6.7,1.5,11.5,9.4,11.5,14.8C2622.9,1096,2622.9,1096.1,2622.9,1096.1z"/>
				<path class="st4" d="M2171.8,1212.5c0,0.1,0,0.2,0,0.3l0,0v42.9h-8.2v-42.9l0,0c0-0.1,0-0.2,0-0.3c0-6.5,6.3-11.8,14-11.8
					c1.4,0,2.8,0.2,4.1,0.5C2175.9,1202.7,2171.8,1207.1,2171.8,1212.5z"/>
				<path class="st2" d="M2191.6,1212.8L2191.6,1212.8v42.9h-19.8v-42.9l0,0c0-0.1,0-0.2,0-0.3c0-5.3,4.2-9.8,9.9-11.3
					c5.7,1.5,9.9,6,9.9,11.3C2191.6,1212.6,2191.6,1212.7,2191.6,1212.8z"/>
				<path class="st3" d="M2551.1,1419.2c0,0.1,0,0.3,0,0.4l0,0v59.4h11.8v-59.4l0,0c0-0.1,0-0.3,0-0.4c0-9-9.1-16.3-20.2-16.3
					c-2,0-4,0.2-5.9,0.7C2545,1405.7,2551.1,1411.9,2551.1,1419.2z"/>
				<path class="st2" d="M2522.4,1419.6L2522.4,1419.6v59.4h28.7v-59.4l0,0c0-0.1,0-0.3,0-0.4c0-7.3-6-13.5-14.3-15.6
					c-8.3,2-14.3,8.2-14.3,15.6C2522.4,1419.4,2522.4,1419.5,2522.4,1419.6z"/>
				<path class="st3" d="M2615,1419.2c0,0.1,0,0.3,0,0.4l0,0v59.4h11.8v-59.4l0,0c0-0.1,0-0.3,0-0.4c0-9-9.1-16.3-20.2-16.3
					c-2,0-4,0.2-5.9,0.7C2609,1405.7,2615,1411.9,2615,1419.2z"/>
				<path class="st2" d="M2586.4,1419.6L2586.4,1419.6v59.4h28.7v-59.4l0,0c0-0.1,0-0.3,0-0.4c0-7.3-6-13.5-14.3-15.6
					c-8.3,2-14.3,8.2-14.3,15.6C2586.4,1419.4,2586.4,1419.5,2586.4,1419.6z"/>
				<path class="st4" d="M2502.9,1258.1c0,0.1,0,0.3,0,0.4l0,0v57h-11.7v-57l0,0c0-0.1,0-0.3,0-0.4c0-8.6,9-15.6,20.1-15.6
					c2,0,4,0.2,5.9,0.7C2508.9,1245.1,2502.9,1251.1,2502.9,1258.1z"/>
				<path class="st2" d="M2531.5,1258.5L2531.5,1258.5v57H2503v-57l0,0c0-0.1,0-0.3,0-0.4c0-7,6-13,14.3-14.9
					c8.2,2,14.3,7.9,14.3,14.9C2531.5,1258.3,2531.5,1258.4,2531.5,1258.5z"/>
				<path class="st4" d="M2438.3,1258.1c0,0.1,0,0.3,0,0.4l0,0v57h-11.7v-57l0,0c0-0.1,0-0.3,0-0.4c0-8.6,9-15.6,20.1-15.6
					c2,0,3.9,0.2,5.9,0.7C2444.3,1245.1,2438.3,1251.1,2438.3,1258.1z"/>
				<path class="st2" d="M2466.8,1258.5L2466.8,1258.5v57h-28.5v-57l0,0c0-0.1,0-0.3,0-0.4c0-7,6-13,14.3-14.9
					c8.3,2,14.3,7.9,14.3,14.9C2466.8,1258.3,2466.8,1258.4,2466.8,1258.5z"/>
				<path class="st4" d="M2330,1452.4c0,0.9,0,1.8,0.1,2.7h-0.1v64.7h-13.4v-64.6h0.1c-0.1-0.9-0.1-1.8-0.1-2.7
					c0-24,19.5-43.4,43.4-43.4c2.2,0,4.5,0.2,6.7,0.5C2345.6,1412.8,2330,1431,2330,1452.4z"/>
				<path class="st2" d="M2403.4,1455.1L2403.4,1455.1l0.1,64.7h-73.4v-64.7h0.1c-0.1-0.9-0.1-1.8-0.1-2.7
					c0-21.4,15.6-39.6,36.7-42.9c21.1,3.3,36.7,21.5,36.7,42.9C2403.5,1453.3,2403.4,1454.2,2403.4,1455.1z"/>
				<rect x="2644.8" y="1062.8" class="st4" width="45" height="96.4"/>
				<polygon class="st2" points="2689.9,1159.2 2684.3,1173 2644.8,1173 2644.8,1159.2 				"/>
				<rect x="2644.8" y="1173" class="st4" width="39.4" height="347.1"/>
				<rect x="2180.9" y="1389.1" class="st4" width="27" height="12"/>
				<rect x="2166.9" y="1405.1" class="st2" width="26" height="13"/>
				<rect x="2266.9" y="1504.1" class="st6" width="26" height="12"/>
				<rect x="2431.9" y="1436.1" class="st4" width="28" height="14"/>
				<rect x="2412.9" y="1360.1" class="st4" width="27" height="14"/>
				<rect x="2396.9" y="1377.1" class="st2" width="27" height="13"/>
				<rect x="2426.9" y="1377.1" class="st4" width="27" height="13"/>
				<rect x="2626.9" y="1385.1" class="st2" width="26" height="13"/>
				<rect x="2640.9" y="1401.1" class="st2" width="26" height="13"/>
				<rect x="2604.9" y="1305.1" class="st4" width="27" height="14"/>
				<rect x="2542.9" y="1237.1" class="st2" width="27" height="12"/>
				<rect x="2527.9" y="1221.1" class="st2" width="27" height="12"/>
				<rect x="2644.9" y="1123.1" class="st2" width="27" height="12"/>
				<rect x="2310.9" y="1089.1" class="st2" width="27" height="13"/>
				<rect x="2288.9" y="1127.1" class="st4" width="28" height="13"/>
				<rect x="2274.5" y="942.9" class="st5" width="74.2" height="12.2"/>
				<rect x="2348.7" y="942.9" class="st6" width="45" height="12.2"/>
				<rect x="2144.1" y="1183.5" class="st5" width="72" height="12.2"/>
				<rect x="2216.1" y="1183.5" class="st6" width="43.7" height="12.2"/>
				<rect x="2570.4" y="1062.8" class="st5" width="74.2" height="12.3"/>
				<rect x="2644.7" y="1062.8" class="st6" width="45.1" height="12.2"/>
			</g>
		</g>
	</g>
</g>
</svg>
